<svg xmlns="http://www.w3.org/2000/svg" xmlns:xlink="http://www.w3.org/1999/xlink" width="414" height="896" viewBox="0 0 414 896">
  <defs>
    <filter id="Path_1957" x="1" y="251" width="412" height="635" filterUnits="userSpaceOnUse">
      <feOffset dy="2" input="SourceAlpha"/>
      <feGaussianBlur stdDeviation="3" result="blur"/>
      <feFlood flood-opacity="0.153"/>
      <feComposite operator="in" in2="blur"/>
      <feComposite in="SourceGraphic"/>
    </filter>
    <filter id="Union_3" x="285.5" y="164.5" width="106" height="42.63" filterUnits="userSpaceOnUse">
      <feOffset dy="1" input="SourceAlpha"/>
      <feGaussianBlur stdDeviation="0.5" result="blur-2"/>
      <feFlood flood-opacity="0.161"/>
      <feComposite operator="in" in2="blur-2"/>
      <feComposite in="SourceGraphic"/>
    </filter>
    <filter id="Union_9" x="31.5" y="422.315" width="350.001" height="395.185" filterUnits="userSpaceOnUse">
      <feOffset dy="1" input="SourceAlpha"/>
      <feGaussianBlur stdDeviation="0.5" result="blur-3"/>
      <feFlood flood-opacity="0.161"/>
      <feComposite operator="in" in2="blur-3"/>
      <feComposite in="SourceGraphic"/>
    </filter>
    <clipPath id="clip-_00保單列表_modal勾選提示-輸出_無字_2">
      <rect width="414" height="896"/>
    </clipPath>
  </defs>
  <g id="_00保單列表_modal勾選提示-輸出_無字_2" data-name="00保單列表_modal勾選提示-輸出_無字 – 2" clip-path="url(#clip-_00保單列表_modal勾選提示-輸出_無字_2)">
    <rect width="414" height="896" fill="#fff"/>
    <path id="BG" d="M0,0H414V1445H0Z" transform="translate(0 113)" fill="#fffaf5"/>
    <g transform="matrix(1, 0, 0, 1, 0, 0)" filter="url(#Path_1957)">
      <path id="Path_1957-2" data-name="Path 1957" d="M10,0H384a10,10,0,0,1,10,10V607a10,10,0,0,1-10,10H10A10,10,0,0,1,0,607V10A10,10,0,0,1,10,0Z" transform="translate(10 258)" fill="#fff"/>
    </g>
    <path id="Path_1955" data-name="Path 1955" d="M-20.352-3.5H-29.76V1.7h1.472V1.088h6.448V1.7h1.488ZM-28.288-.288V-2.144h6.448V-.288Zm.864-10.224a11.733,11.733,0,0,1-3.792,3.44L-30.24-5.9a15.9,15.9,0,0,0,1.872-1.408,14.674,14.674,0,0,0,1.856,1.376,34.15,34.15,0,0,1-6.1,1.376l.576,1.344A32.336,32.336,0,0,0-24.96-5.1,18.2,18.2,0,0,0-18.24-3.52L-17.9-4.9A19.558,19.558,0,0,1-23.328-5.92,7.539,7.539,0,0,0-20.8-8.128V-9.344h-5.728c.192-.272.4-.56.592-.848Zm2.512,3.936A13.325,13.325,0,0,1-27.28-8.048h4.64A8.993,8.993,0,0,1-24.912-6.576Zm6.352-5.472h-5.92c-.16-.448-.32-.832-.48-1.184l-1.68.256a8.62,8.62,0,0,1,.512.928H-31.84v3.232H-30.3v-1.872H-20.1v1.872h1.536ZM-3.1-13.072a61.611,61.611,0,0,1-10.944,1.008V-7.04a15.319,15.319,0,0,1-1.744,7.5l1.1,1.152A15.082,15.082,0,0,0-12.88-3.76H-2.288V-9.12h-10.3V-10.7A64.237,64.237,0,0,0-2.352-11.7Zm-9.584,7.84c.048-.576.08-1.168.1-1.808v-.624H-3.76v2.432ZM1.6-2.576A18.773,18.773,0,0,1,1.136.976l1.264.4a30.05,30.05,0,0,0,.4-3.792ZM4.416-2.7,3.3-2.48c.112.976.208,2.1.272,3.344l1.28-.3Q4.656-1.216,4.416-2.7ZM5.7-6.816l-1.1.352c.128.432.24.864.368,1.312Q4-4.888,3.088-4.72a35.58,35.58,0,0,0,3.3-5.36l-1.312-.5c-.336.672-.656,1.312-.96,1.9-.48.1-.96.16-1.424.224a24.964,24.964,0,0,0,2-4.128l-1.36-.544A26.317,26.317,0,0,1,1.616-8.832a1.248,1.248,0,0,1-.576.512l.352,1.232c.688-.1,1.36-.208,2.032-.3a14.947,14.947,0,0,1-1.7,2.512A2.048,2.048,0,0,1,1.1-4.5l.368,1.232A20.641,20.641,0,0,0,5.216-4.1l.16.752,1.168-.3A27.951,27.951,0,0,0,5.7-6.816Zm.272,3.68L4.9-2.768A21.718,21.718,0,0,1,5.552-.176L6.544-.64c-.128.352-.272.72-.416,1.072l1.152.72A18.735,18.735,0,0,0,8.416-2.832L7.168-3.1A15.994,15.994,0,0,1,6.64-.928,19.916,19.916,0,0,0,5.968-3.136Zm1.056-8.752v7.376h4.208l-.992.624a21.5,21.5,0,0,1,1.536,2.544l1.056-.72A20.84,20.84,0,0,0,11.28-4.512h3.792v-7.376h-4a5.467,5.467,0,0,0,.432-1.04l-1.488-.192a6,6,0,0,1-.448,1.232ZM13.744-5.7H10.16a19.12,19.12,0,0,0,1.648-1.312,13.4,13.4,0,0,1,.912.992l.72-.88c-.272-.3-.56-.592-.864-.88a13.813,13.813,0,0,0,.96-1.168L12.8-9.616c-.3.384-.64.768-.992,1.152-.176-.16-.368-.3-.56-.464.288-.288.56-.608.848-.96l-.752-.672q-.432.528-.912,1.008c-.336-.24-.672-.48-1.024-.7l-.672.8c.288.192.592.4.88.624-.384.3-.8.608-1.248.9l.64.832a16.4,16.4,0,0,0,1.456-1.088q.288.216.576.48A18.731,18.731,0,0,1,9.424-6.464l.592.768H8.352V-10.7h5.392ZM14.5-3.5l-1.232.4A24.116,24.116,0,0,1,14.7.4l1.184-.544A21.123,21.123,0,0,0,14.5-3.5ZM12.08,1.376a1.9,1.9,0,0,0,1.152-.3,3.569,3.569,0,0,0,.56-2.08l-1.264-.416a3.145,3.145,0,0,1-.24,1.3.577.577,0,0,1-.448.176H10.56c-.288,0-.416-.128-.416-.352v-2.96H8.784V-.032c0,.928.432,1.408,1.328,1.408Zm7.984-9.2V-8.64h1.472v.816Zm2.624-.816h1.6v-2.448h-1.6v-.768h1.888v-.992h-5.84v6.032h6.048V-7.824h-2.1ZM20.064-9.5v-.7h3.1v.7Zm0-1.584v-.768h1.472v.768Zm6.72-.32H31.92v-1.024H27.3a5.664,5.664,0,0,0,.224-.624l-1.232-.192A4.478,4.478,0,0,1,24.48-10.8l.784.976A5.321,5.321,0,0,0,26.784-11.408Zm-1.456,1.92v2.656H31.92V-9.488Zm5.52,1.76H29.92V-8.64h.928Zm-1.808,0h-.832V-8.64h.832Zm-1.7,0H26.4V-8.64h.944ZM19.936-6.24V-.784h3.12a3.514,3.514,0,0,1-1.04.64,17.776,17.776,0,0,1-3.92.7l.512,1.232A13.785,13.785,0,0,0,23.056.656a3.6,3.6,0,0,0,1.456-1.44H26.3V.3c0,.72.448,1.088,1.36,1.088h3.2a2.106,2.106,0,0,0,1.12-.256,2.873,2.873,0,0,0,.544-1.76l-1.3-.416A2.78,2.78,0,0,1,31.008.1a.444.444,0,0,1-.384.176H28.032c-.192,0-.288-.1-.288-.256v-.8H30.48V-6.24ZM29.1-1.776H21.312v-.688H29.1ZM21.312-3.264v-.624H29.1v.624Zm0-1.44v-.688H29.1V-4.7Zm5.376-6.16v.88h4.448v-.88Z" transform="translate(56 241)" fill="rgba(0,0,0,0.7)"/>
    <path id="Path_1958" data-name="Path 1958" d="M-45.1-10v1.472h2.784v3.472H-45.9v1.488h14.368V-5.056h-3.584V-8.528h2.8V-10h-2.8v-3.1h-1.52V-10H-40.8v-3.168h-1.52V-10Zm4.3,4.944V-8.528h4.16v3.472Zm-.336,1.776a18.95,18.95,0,0,1-4.8,3.568l1.056,1.376a19.711,19.711,0,0,0,4.9-3.9Zm4.976.032-1.1,1.072A28.726,28.726,0,0,1-32.7,1.648L-31.484.432A36.624,36.624,0,0,0-36.156-3.248ZM34.076-10.88h1.2a12.169,12.169,0,0,1,.816,1.392l1.28-.48a10.464,10.464,0,0,0-.576-.912h1.68v-1.28H34.828c.112-.24.224-.48.32-.72l-1.424-.3a8.334,8.334,0,0,1-2.064,2.928l1.248.784A9.924,9.924,0,0,0,34.076-10.88Zm6.576,0h.96a13.368,13.368,0,0,1,.8,1.408l1.264-.48a10.224,10.224,0,0,0-.56-.928h2.64v-1.28H41.308c.08-.224.16-.464.256-.688l-1.44-.3a7.544,7.544,0,0,1-1.616,2.736l1.248.784A10.322,10.322,0,0,0,40.652-10.88Zm3.3,6.9v-2h1.888v-1.28H43.948v-2h-4.8v-.672H37.692v.672H33.228v1.232h4.464v.768H31.58v1.28h6.112V-5.2H33.244v1.216h4.448V-3.2H32.764v1.248h4.928v.784h-5.76V.176h5.76V1.568h1.456V.176h6.336V-1.168H39.148v-.784H44.6V-3.2H39.148v-.784Zm-4.8-4.048h3.376v.768H39.148Zm0,2.048h3.376V-5.2H39.148Z" transform="translate(298 241)" fill="rgba(0,0,0,0.7)"/>
    <g id="頁首_含選單與時間_" data-name="頁首(含選單與時間)">
      <rect id="Rectangle_1494" data-name="Rectangle 1494" width="414" height="24" transform="translate(0 89)" fill="#213938"/>
      <rect id="上方合庫底色" width="414" height="89" fill="#008f6a"/>
      <g id="合庫logo-白" transform="translate(68)">
        <path id="Path_643" data-name="Path 643" d="M868.907,75.174l-20.544.008c-.118,0-.236-.016-.349-.023-.15-.631-.209-18.426-.065-20.114.312-.009.635-.025.958-.025l19.006,0c.332,0,.663-.012.995-.018Zm-3.887-11.382a11.934,11.934,0,0,0,.653-3.9.731.731,0,0,1,.312-.642c.232-.194.54-.359.552-.745a2.916,2.916,0,0,0-1.246.033.94.94,0,0,1-.584-.053,17.281,17.281,0,0,0-3.542-1.141,1.359,1.359,0,0,0-.995.063,13.118,13.118,0,0,1,2.624,1.577c-.789.215-1.5.4-2.2.6-1.572.462-1.57.467-1.876.8l4.057-.394-1.512,1.868,3.032-1.489C864.928,61.406,864.589,62.594,865.021,63.793Zm-10.15,2.1c.129-.394.211-.622.278-.854.113-.4.2-.8.33-1.188.182-.543.194-.558.794-.567,1-.015,2,0,3.121,0a9.608,9.608,0,0,0-3.183-1.117l.427-1.134c-.586.288-1.017.474-1.418.7a2.107,2.107,0,0,1-1.135.262,5.843,5.843,0,0,0-2.358.359c.564.3,1.279.187,1.717.662-1.132,1.178-1.643,1.965-1.669,2.521.879-.382,1.387-1.254,2.339-1.614ZM854.35,71.3l.06-.132c-.393-.233-.787-.463-1.178-.7a.461.461,0,0,1-.2-.647c.137-.294.3-.578.462-.891a1.277,1.277,0,0,0-.312-.049c-.234.033-.465.089-.7.13-.411.073-.549.029-.685-.329-.211-.557-.379-1.129-.561-1.681a2.537,2.537,0,0,0-.263,1.409c.02.291.187.658.05.851s-.572.232-.871.348c-.035.013-.039.092-.077.192a10.048,10.048,0,0,0,.888.5,1.591,1.591,0,0,1,.852.8,3.6,3.6,0,0,0,.883,1.04l.13-1.041Zm1.843,1.264a4.57,4.57,0,0,0,.617-.116,8.145,8.145,0,0,1,1.41-.518c.453-.072.82-.055.777-.618-.009-.116.215-.248.333-.37.161-.166.323-.331.485-.5a.917.917,0,0,0-.482.075c-.157.05-.344.144-.474.1-.092-.03-.11-.251-.173-.422a6.009,6.009,0,0,1-1.154.972,6.5,6.5,0,0,1-1.545.3l.964.432Z" transform="translate(-654.907 -5.732)" fill="#fff"/>
        <path id="Path_644" data-name="Path 644" d="M64,61.578a1.182,1.182,0,0,0,.172-.343,10.3,10.3,0,0,1,5.513-8,9.916,9.916,0,0,1,4.938-1.307c1.628-.012,3.257,0,4.885,0,.09,0,.181,0,.271.006.63.045.865.245.877.829.02.94.006,1.881.006,2.822,0,.3.013.609,0,.913s.092.438.452.466a9.566,9.566,0,0,1,1.587.243,5.523,5.523,0,0,1,4.141,4.976,5.789,5.789,0,0,1-.4,2.678A5.7,5.7,0,0,1,81.4,68.215a1.777,1.777,0,0,0-.448.024.48.48,0,0,0-.274.259,1.715,1.715,0,0,0-.017.495c0,.941-.038,1.883.013,2.821a1.844,1.844,0,0,1-.55,1.566h-6.16a1.6,1.6,0,0,0-.372-.161c-.264-.043-.544-.02-.8-.078A11.082,11.082,0,0,1,67.332,70.3a10.091,10.091,0,0,1-3.157-6.218A1.083,1.083,0,0,0,64,63.739Zm15.812,6.64a5.769,5.769,0,0,1-4.549-4.9A5.307,5.307,0,0,1,76.3,59.309a6.4,6.4,0,0,1,3.722-2.329,2.62,2.62,0,0,0-.638-.072c-1.417,0-2.835-.017-4.252,0a5.827,5.827,0,0,0-5.9,5.389,5.658,5.658,0,0,0,.537,2.652,5.879,5.879,0,0,0,5.081,3.3c1.447,0,2.895.005,4.342,0C79.4,68.255,79.6,68.232,79.812,68.219Zm3.232-5.577h0c0-.526,0-1.052,0-1.579,0-.245-.126-.345-.384-.345-1.057,0-2.113.007-3.17,0-.357,0-.467.141-.463.451.013.942,0,1.883.008,2.825.006.458.1.557.565.565q1.449.025,2.9,0c.427-.007.529-.114.542-.5C83.057,63.584,83.044,63.112,83.044,62.642Z" transform="translate(0 -3.214)" fill="#fff"/>
        <path id="Path_645" data-name="Path 645" d="M543.966,48a2.625,2.625,0,0,0,.366.378.621.621,0,0,1,.346.589c-.052.45.249.578.586.643a3.545,3.545,0,0,0,.722.026,8.692,8.692,0,0,1,2.375.381,1.1,1.1,0,0,1,.33.128.37.37,0,0,1,.018.614,1.712,1.712,0,0,1-1.452.25,9.5,9.5,0,0,0-1.784-.1.732.732,0,0,0-.726.447c.533.473,1.2.228,1.8.334.466.082.947.082,1.411.173.127.025.273.235.308.385.06.253-.162.268-.348.282a1.934,1.934,0,0,1-.6.039,5.964,5.964,0,0,0-2.407.143.375.375,0,0,0-.222.3c.01.1.179.265.27.26a11.591,11.591,0,0,1,2.933.371,2.169,2.169,0,0,1,.747.276c.513.33.5.6-.032.91a2.447,2.447,0,0,0-1.018,1.418,4.016,4.016,0,0,1-.319.82,1.035,1.035,0,0,1-1.057.545,7.958,7.958,0,0,0-1.264-.013c-.087,0-.243.139-.237.2a.459.459,0,0,0,.183.342,3.616,3.616,0,0,0,2.04.139,1.8,1.8,0,0,1,.964,0,2.266,2.266,0,0,0,.716.04c.538,0,1.076,0,1.629,0a1.6,1.6,0,0,1-2.141,1.33,11.412,11.412,0,0,0-2.663-.315c-.656-.091-.882.225-.918.918a6.369,6.369,0,0,0-.015.9.759.759,0,0,1-.464.786c-.583.344-1.091.123-1.15-.555-.034-.389,0-.785-.011-1.176-.021-.516-.137-.64-.645-.645-.875-.009-1.75-.016-2.624.02a1.881,1.881,0,0,0-1.385.55.584.584,0,0,1-.744.134,1.119,1.119,0,0,1-.387-.648c-.087-.367.194-.57.5-.633a7.551,7.551,0,0,1,1.767-.255,9.707,9.707,0,0,0,3.078-.4.847.847,0,0,0,.366-.233.293.293,0,0,0-.147-.494c-.436-.032-.836-.272-1.319-.086s-.721.049-.952-.419a8.48,8.48,0,0,1-.366-1.1,7.718,7.718,0,0,0-.445-1.256.394.394,0,0,1,.157-.6,5.67,5.67,0,0,1,1.144-.5c.513-.156,1.046-.243,1.568-.371a.771.771,0,0,0,.309-.16.292.292,0,0,0,.091-.228.256.256,0,0,0-.162-.174,3.388,3.388,0,0,0-1.77-.106.938.938,0,0,1-.351.066c-.192-.01-.439.117-.55-.161a.635.635,0,0,1,.313-.837,1.569,1.569,0,0,1,1.041-.115,1.35,1.35,0,0,0,1.511-.407c-.137-.1-.243-.237-.371-.262a4.283,4.283,0,0,0-2.169-.218,2.978,2.978,0,0,1-.721.025c-.7.032-.957.316-.926,1.027.008.179.051.356.064.535.035.447.086.894.084,1.341,0,.325-.1.649-.117.975a2.755,2.755,0,0,1-.839,1.552,6.269,6.269,0,0,1-2.469,1.735c-.411.182-.819.374-1.238.535-.655.252-1.057-.035-1.064-.738a1.294,1.294,0,0,1,.945-1.446c.789-.34,1.56-.722,2.353-1.053a2.855,2.855,0,0,0,1.2-2.558,1.213,1.213,0,0,0-.968-1.053c-.7-.15-.816-.584-.38-1.16a1.635,1.635,0,0,1,1.025-.679c.647-.116,1.287-.268,1.933-.385a2.682,2.682,0,0,1,.438.047c.654,0,1.308,0,1.961-.021a1.033,1.033,0,0,0,1.085-.774.539.539,0,0,1,.552-.38c.118-.01.228-.13.341-.2Zm1.58,5.951h-.359c-.323,0-.6.061-.676.442s.057.525.5.707c.6.247,1.167-.067,1.749-.1.109-.005.284-.254.286-.393a.509.509,0,0,0-.283-.392C546.313,54.084,545.841,54.012,545.546,53.951Zm-2.524.587c-.12-.112-.254-.34-.437-.39a2.285,2.285,0,0,0-1.707.28.49.49,0,0,0-.149.46.642.642,0,0,0,.449.34c.444,0,.886-.1,1.331-.128C542.814,55.078,542.915,54.884,543.022,54.538Zm3.55,1.813a1.245,1.245,0,0,0-.122-.288,1.5,1.5,0,0,0-1.8.021.262.262,0,0,0,.043.391,1.542,1.542,0,0,0,1.651.2C546.455,56.607,546.506,56.45,546.572,56.351Zm-3.548-.24c-.066-.1-.1-.2-.162-.242a2.084,2.084,0,0,0-1.71.153c-.05.049-.087.2-.055.23.137.151.3.384.456.39a3.971,3.971,0,0,0,1.142-.146C542.827,56.461,542.914,56.246,543.023,56.111Z" transform="translate(-391.729)" fill="#fff"/>
        <path id="Path_646" data-name="Path 646" d="M760.117,48c.033.048.061.133.1.138.477.061.9.153.838.8a.431.431,0,0,0,.262.325,3.155,3.155,0,0,0,1.32.157,4.936,4.936,0,0,1,1.317.043c.2,0,.451-.05.478.268a.57.57,0,0,1-.3.6,1.466,1.466,0,0,1-1.137.154c-.66-.186-1.3.109-1.949.043-.055-.006-.176.111-.17.161a.454.454,0,0,0,.141.292.546.546,0,0,0,.335.092c.568-.025,1.134-.075,1.7-.095a.519.519,0,0,1,.384.13c.062.08.03.267-.012.388a.833.833,0,0,1-.954.641,8.564,8.564,0,0,0-.975-.109c-.928-.008-1.858-.025-2.783.029-.62.037-1.232.2-1.85.284-.321.042-.5-.142-.53-.471-.031-.347.087-.548.4-.585.653-.077,1.31-.127,1.965-.186a1.324,1.324,0,0,0,.358-.022c.1-.04.255-.183.239-.226-.045-.12-.156-.288-.258-.3a4.235,4.235,0,0,0-.806.021c-.627.044-1.254.1-1.881.14-.23.015-.41-.046-.415-.342-.007-.44.094-.689.381-.713.42-.034.844-.014,1.266-.021a7.375,7.375,0,0,0,.814-.029c.617-.078.823-.236.777-.858-.038-.509.347-.536.578-.753Z" transform="translate(-577.167)" fill="#fff"/>
        <path id="Path_647" data-name="Path 647" d="M677,158.835c0-1.084,0-2.168.008-3.253a2.4,2.4,0,0,1,.051-.626,1.419,1.419,0,0,1,1.857-.94,1.358,1.358,0,0,1,.639,1.953c-.084.171-.211.287-.005.443.463.351.365.856.346,1.33a1.094,1.094,0,0,1-.86,1.015c-.02.007-.028.051-.042.078h-.906v-.978a1.682,1.682,0,0,1,.315-.074c.306,0,.558-.115.585-.433.032-.371-.221-.508-.566-.548-.113-.013-.3-.135-.3-.219-.017-.215-.14-.487.156-.634.107-.053.247-.081.315-.166.1-.125.243-.327.2-.43a.8.8,0,0,0-.422-.414c-.082-.03-.314.17-.379.311a1.514,1.514,0,0,0-.088.61c-.006.992,0,1.984,0,2.975Z" transform="translate(-510.995 -88.668)" fill="#fff"/>
        <path id="Path_648" data-name="Path 648" d="M245.972,158.861c0-1.2-.018-2.4.008-3.606a1.359,1.359,0,1,1,2.541.738c-.09.167-.22.286-.012.442.466.35.359.857.346,1.328a1.1,1.1,0,0,1-.852,1.019c-.02.007-.026.052-.039.079h-.906v-1c.386-.086.861-.008.89-.5.034-.576-.507-.468-.842-.585-.054-.378-.156-.739.324-.9a.564.564,0,0,0,.2-.174c.2-.222.145-.484-.132-.678-.246-.172-.415-.008-.507.174a1.375,1.375,0,0,0-.129.6c-.007,1.023.005,2.046.011,3.069Z" transform="translate(-151.686 -88.694)" fill="#fff"/>
        <path id="Path_649" data-name="Path 649" d="M272.128,158.945l-1.343-2.963a2.578,2.578,0,0,0-.11,1.051c-.014.482-.006.964-.008,1.446,0,.24-.152.3-.356.293s-.36-.051-.362-.291q-.006-.632-.006-1.265c0-.874,0-1.747.009-2.621a.46.46,0,0,1,.4-.519.49.49,0,0,1,.579.309c.276.6.55,1.2.832,1.793a.666.666,0,0,0,.36.336c0-.618,0-1.235,0-1.853,0-.173-.026-.363.223-.423.285-.068.495.04.5.321.009,1.3.01,2.591,0,3.886a1.757,1.757,0,0,1-.165.5Z" transform="translate(-171.674 -88.778)" fill="#fff"/>
        <path id="Path_650" data-name="Path 650" d="M341,158.887c.011-.965.007-1.93.038-2.893a2.112,2.112,0,0,1,.526-1.574,1.516,1.516,0,0,1,1.815-.218,1.818,1.818,0,0,1,.622,2.1c-.24.676-.776.96-1.713.864,0-.167.011-.342,0-.516-.023-.28.061-.4.366-.494a.5.5,0,0,0,.341-.71.715.715,0,0,0-.451-.351c-.119-.022-.327.148-.4.284a1.117,1.117,0,0,0-.07.526c0,1,.011,1.991.018,2.986Z" transform="translate(-230.911 -88.72)" fill="#fff"/>
        <path id="Path_651" data-name="Path 651" d="M414.235,158.985c-.355-.378-.9-.609-.964-1.218a4.386,4.386,0,0,1-.085-.436c-.008-1.048,0-2.1,0-3.114.11-.056.16-.1.21-.1.644.008.649.01.655.612.006.692-.019,1.385.011,2.076a2.218,2.218,0,0,0,.217.853.453.453,0,0,0,.756.106.7.7,0,0,0,.283-.715.723.723,0,0,0-.582-.61c-.141-.025-.286-.025-.457-.039v-.928a1.283,1.283,0,0,1,1.353.258,1.746,1.746,0,0,1,.59,1.255,2.085,2.085,0,0,1-1.076,2Z" transform="translate(-291.08 -88.819)" fill="#fff"/>
        <path id="Path_652" data-name="Path 652" d="M297,158.8q0-1.4.007-2.8c0-.24,0-.481.015-.721a1.4,1.4,0,0,1,.948-1.3,1.464,1.464,0,0,1,1.626.43,1.655,1.655,0,0,1,.247,1.92,1.286,1.286,0,0,1-1.5.794c-.021-.163-.052-.331-.063-.5-.017-.282.008-.468.378-.583a.53.53,0,0,0,.212-.879.4.4,0,0,0-.684,0,2.337,2.337,0,0,0-.256.929c-.036.9-.018,1.8-.022,2.705Z" transform="translate(-194.231 -88.638)" fill="#fff"/>
        <path id="Path_653" data-name="Path 653" d="M564.927,158.916a3.273,3.273,0,0,0-.268-.214,1.915,1.915,0,0,1-.35-2.888.948.948,0,0,1,.794-.347c.194.016.438-.087.538.191a.565.565,0,0,1-.361.731c-.608.308-.742.785-.345,1.226.3.329.7.312.882-.082a2.309,2.309,0,0,0,.179-.867c.024-.753.014-1.507.007-2.261,0-.268.108-.376.374-.376s.376.107.374.375c-.008,1.025-.008,2.05-.007,3.075a1.417,1.417,0,0,1-.592,1.161c-.11.087-.213.184-.319.276Z" transform="translate(-416.637 -88.75)" fill="#fff"/>
        <path id="Path_654" data-name="Path 654" d="M438.543,164.621c-.373-.366-.909-.616-.954-1.222a4.592,4.592,0,0,1,.018-1.224c.218-1.086.872-1.2,1.612-1.175a1.5,1.5,0,0,1,1.282,1.494c.035.624.007,1.251.007,1.915h-.85c0-.41.009-.823-.013-1.234a2.521,2.521,0,0,0-.131-.784.518.518,0,0,0-.929-.1.838.838,0,0,0-.055.919c.2.357.493.383.918.217v1.2Z" transform="translate(-311.398 -94.454)" fill="#fff"/>
        <path id="Path_655" data-name="Path 655" d="M363.074,164.606a4.686,4.686,0,0,1-.684-.542,2.463,2.463,0,0,1-.176-2.393,1.445,1.445,0,0,1,1.551-.676,1.468,1.468,0,0,1,1.111,1.042,7.959,7.959,0,0,1,.152,2.32,1.306,1.306,0,0,1-.3.073c-.545-.02-.548-.022-.562-.54-.007-.241.008-.482,0-.723a2.333,2.333,0,0,0-.076-.529c-.086-.294-.2-.575-.578-.6a.517.517,0,0,0-.541.382.731.731,0,0,0,.153.9c.022.021.043.054.068.057.8.114.615.712.609,1.223Z" transform="translate(-248.403 -94.44)" fill="#fff"/>
        <path id="Path_656" data-name="Path 656" d="M633.411,158.879q-.005-1.4-.011-2.807c0-.959,0-.959-1.005-1.087v-.939a23.17,23.17,0,0,1,2.95-.03v.929c-.048.031-.094.085-.145.09-.725.079-.734.077-.733.767,0,1.025.02,2.051.031,3.076Z" transform="translate(-473.815 -88.713)" fill="#fff"/>
        <path id="Path_657" data-name="Path 657" d="M523.929,164.611a4.554,4.554,0,0,1-.782-.692,2.228,2.228,0,0,1-.2-1.987,1.434,1.434,0,0,1,2.782.354c.042.6.015,1.2.023,1.8,0,.277-.143.357-.4.353-.282,0-.355-.155-.349-.4a7.237,7.237,0,0,0-.006-.9,2.667,2.667,0,0,0-.178-.776.528.528,0,0,0-.678-.294.552.552,0,0,0-.412.527c-.04.359.037.749.386.823.588.126.546.506.53.922,0,.09,0,.18.006.27Z" transform="translate(-382.462 -94.444)" fill="#fff"/>
        <path id="Path_658" data-name="Path 658" d="M770.128,164.617a2.21,2.21,0,0,1-1.056-2.2,1.472,1.472,0,0,1,1.732-1.41c.455.051.638.221,1.085,1.027l-1.348,1.11-.365-.613c.217-.17.413-.308.587-.47a.243.243,0,0,0,.023-.236.276.276,0,0,0-.23-.093.814.814,0,0,0-.638.856c-.016.465.19.878.532.938a.9.9,0,0,0,.585-.126,2.338,2.338,0,0,0,.435-.537l.567.329a2.507,2.507,0,0,1-1,1.426Z" transform="translate(-587.732 -94.451)" fill="#fff"/>
        <path id="Path_659" data-name="Path 659" d="M500.478,159.037c-.062-.058-.117-.156-.187-.169a1.657,1.657,0,0,1-1.3-1.234,3.144,3.144,0,0,1,0-2.108c.365-1,.911-1.333,2.16-1.349l.043.918c-1.192.326-1.451.581-1.474,1.418s.256,1.131,1.476,1.568v.957Z" transform="translate(-362.439 -88.87)" fill="#fff"/>
        <path id="Path_660" data-name="Path 660" d="M654.476,159.037a.979.979,0,0,0-.275-.186,1.64,1.64,0,0,1-1.145-1.048,3.115,3.115,0,0,1-.057-2.275c.349-1.008.908-1.336,2.157-1.351.015.306.029.616.043.918-1.193.326-1.453.582-1.475,1.417s.259,1.132,1.477,1.568v.957Z" transform="translate(-490.803 -88.87)" fill="#fff"/>
        <path id="Path_661" data-name="Path 661" d="M461,164.647l.047-1.016,1.343-.08.046-.136c-.215-.132-.428-.266-.645-.395a1.16,1.16,0,0,1-.594-1.436.7.7,0,0,1,.643-.542c.209-.018.421-.013.631-.011.7.005.7.006.685.829-.28.02-.569.033-.855.068a.244.244,0,0,0-.176.144.285.285,0,0,0,.109.211,2.355,2.355,0,0,0,.313.176c1.047.611,1.141,1.39.266,2.188Z" transform="translate(-330.92 -94.481)" fill="#fff"/>
        <path id="Path_662" data-name="Path 662" d="M598,158.923c.007-1.2,0-2.4.024-3.6.014-.853.363-1.221,1.169-1.276.172-.012.346,0,.6,0a2.637,2.637,0,0,1-.01.582.523.523,0,0,1-.243.293c-.124.067-.3.04-.423.106a.351.351,0,0,0-.162.276c.007.069.153.157.249.177a3.735,3.735,0,0,0,.554.036v.8a1.837,1.837,0,0,1-.4.061c-.348-.018-.484.132-.475.477.019.69.017,1.381.024,2.071Z" transform="translate(-445.087 -88.756)" fill="#fff"/>
        <path id="Path_663" data-name="Path 663" d="M725.959,158.939a2.729,2.729,0,0,0-.338-.254.95.95,0,0,1-.552-.861c-.009-1.226,0-2.452,0-3.711a2.6,2.6,0,0,1,.376-.055c.508,0,.518.007.525.484.01.661,0,1.322,0,1.983a3.983,3.983,0,0,0,.01.54c.083.594.261.75.874.792.148.01.3.014.482.023a2.745,2.745,0,0,1,.074,1.058Z" transform="translate(-551.028 -88.773)" fill="#fff"/>
        <path id="Path_664" data-name="Path 664" d="M755.947,158.913c0-1.263-.022-2.526,0-3.789.011-.78.334-1.074,1.111-1.09.227,0,.515-.079.529.295.011.3.068.631-.42.6-.2-.013-.37.109-.311.325a.418.418,0,0,0,.326.21c.314,0,.422.136.414.438-.007.265-.023.482-.372.468-.453-.018-.543.27-.54.648,0,.631,0,1.263-.008,1.894Z" transform="translate(-576.716 -88.746)" fill="#fff"/>
        <path id="Path_665" data-name="Path 665" d="M389,164.478c.011-1.052.018-2.1.035-3.156.007-.44.3-.652.6-.375.263.243.38.117.586.033.493-.2.568-.149.588.369.006.149,0,.3,0,.493-.784.094-.971.608-.933,1.286.024.45.024.9.034,1.351Z" transform="translate(-270.886 -94.311)" fill="#fff"/>
        <path id="Path_666" data-name="Path 666" d="M547,164.537c0-1.05,0-2.1.009-3.151,0-.438.261-.625.6-.388.194.135.258.233.471.052a.435.435,0,0,1,.64-.022c.189.221.036.872-.226.916-.695.117-.7.675-.765,1.155a10.76,10.76,0,0,0-.009,1.439Z" transform="translate(-402.579 -94.37)" fill="#fff"/>
        <path id="Path_667" data-name="Path 667" d="M403,165.793v-3.365h1.044c.014,1.108.029,2.236.043,3.365Z" transform="translate(-282.533 -95.626)" fill="#fff"/>
        <path id="Path_668" data-name="Path 668" d="M739,165.574v-3.363l.9-.05c.024,1.17.016,2.292,0,3.413Z" transform="translate(-562.555 -95.408)" fill="#fff"/>
        <path id="Path_669" data-name="Path 669" d="M585,165.576v-3.363l.9-.05c.027,1.17.017,2.291,0,3.413Z" transform="translate(-434.21 -95.409)" fill="#fff"/>
        <path id="Path_670" data-name="Path 670" d="M441.958,59.592c0,.181,0,.362,0,.543.009.829.006.841.8,1.044a6.051,6.051,0,0,0,.974.138c.3.027.605,0,.9.039s.6.113.612.525c.012.381-.107.554-.566.681a2.956,2.956,0,0,1-2.025-.021,4.439,4.439,0,0,0-1.932-.342,2.709,2.709,0,0,0-1.2.323,13.719,13.719,0,0,1-1.474.668.818.818,0,0,1-1.088-.475c-.175-.667.077-1.108.708-1.2.5-.075,1.014-.1,1.513-.192A8.5,8.5,0,0,0,440.3,61a.63.63,0,0,0,.463-.688c-.016-.422,0-.845-.016-1.267a.937.937,0,0,0-1.2-.941c-.348.078-.693.172-1.044.235a.511.511,0,0,1-.328-.078c-.377-.237-.6-.617-.5-.885.145-.38.5-.373.829-.391l.181-.01c.979-.041,1.074-.152.969-1.129-.006-.06-.011-.12-.022-.18-.171-.891-.172-.9-1.089-.891a.925.925,0,0,1-.9-.412c-.417-.6-.565-.538-1.209-.242-.836.383-1.707.691-2.566,1.026a2.7,2.7,0,0,0-.589.2c-.322.23-.573.052-.834-.082a.322.322,0,0,1-.143-.461,2.073,2.073,0,0,0,.157-.324,1.544,1.544,0,0,1,1.587-1.305c.31-.017.612-.33.912-.322a5.277,5.277,0,0,0,2.147-.575,6.457,6.457,0,0,0,3.34-2.673c.425-.729.925-.8,1.6-.26.837.667,1.666,1.346,2.534,1.97a8.206,8.206,0,0,0,1.779,1.035,5.753,5.753,0,0,0,2.5.673.828.828,0,0,1,.487.165c.3.213.328.472,0,.64-.694.357-1.335.966-2.234.622a.849.849,0,0,0-.358-.026,1.614,1.614,0,0,1-1.387-.48c-.2-.206-.391-.251-.608.116-.127.214-.57.3-.884.334-.8.1-1.611.149-2.418.191a.535.535,0,0,0-.556.367,3.994,3.994,0,0,0-.238,1.114c0,.718.063.755.782.732.447-.014.893-.1,1.339-.1A3.1,3.1,0,0,0,444,56.669a.512.512,0,0,1,.687.394.639.639,0,0,1-.59.636c-.271.01-.544-.022-.814-.006a1.225,1.225,0,0,0-1.3,1.357C441.977,59.231,441.966,59.412,441.958,59.592Zm-.392-8.763c-.9.665-1.768,1.3-2.63,1.944-.087.065-.215.224-.194.257a.785.785,0,0,0,.313.277.848.848,0,0,0,.355.041c1.263,0,2.526.008,3.788-.006a1.858,1.858,0,0,0,.6-.157c.227-.085.237-.25.089-.419a4.152,4.152,0,0,0-.5-.518C442.785,51.766,442.171,51.3,441.566,50.829Z" transform="translate(-307.513 -0.814)" fill="#fff"/>
        <path id="Path_671" data-name="Path 671" d="M214.742,58.959c-1.226.155-2.33.243-3.412.446-1.042.2-1.111.207-1.432-.761-.136-.408-.139-.419-.551-.27-.366.133-.72.3-1.082.44a16.876,16.876,0,0,1-1.817.693,1.126,1.126,0,0,1-1.4-1.429.947.947,0,0,1,.787-.825c.962-.2,1.9-.468,2.878-.638a8.824,8.824,0,0,0,3.495-1.33,5.342,5.342,0,0,0,1.549-1.833,1.3,1.3,0,0,0,.125-.688A.714.714,0,0,1,214.4,52a.82.82,0,0,1,.9.219c.909.83,1.9,1.578,2.757,2.453A18.016,18.016,0,0,0,221.1,57.01a5.651,5.651,0,0,0,2.648.959,2.386,2.386,0,0,1,.518.111c.237.075.449.186.453.487a.591.591,0,0,1-.479.584c-.337.1-.68.185-1.018.292a3.338,3.338,0,0,1-3.083-.267.863.863,0,0,0-.674-.143c-.5.067-1.007.113-1.511.169a6.077,6.077,0,0,1-.882.095,13.2,13.2,0,0,1-1.409-.143C215.317,59.1,214.974,59.009,214.742,58.959ZM217.149,58l.006-.036c.06,0,.121,0,.181,0,.372-.035.882.167,1.039-.3.117-.35-.226-.653-.5-.9-.762-.679-1.557-1.326-2.281-2.043-.288-.285-.486-.295-.764-.087-.241.18-.478.365-.707.559-.342.29-.655.62-1.018.88-.632.454-1.3.864-1.939,1.3-.085.058-.188.194-.172.271.02.094.145.186.246.236a.709.709,0,0,0,.348.067,19.53,19.53,0,0,0,3.6-.141,2.347,2.347,0,0,1,.806.025C216.381,57.875,216.764,57.942,217.149,58Z" transform="translate(-117.79 -3.229)" fill="#fff"/>
        <path id="Path_672" data-name="Path 672" d="M373.113,56.155a6.586,6.586,0,0,0-.541.6.44.44,0,0,0,.3.744,6.748,6.748,0,0,0,2.115.219,1.209,1.209,0,0,1,1.363.637.377.377,0,0,1-.157.538,1.7,1.7,0,0,1-1.4.169,7.268,7.268,0,0,0-1.851-.165c-.593.006-1.189-.141-1.781-.126a15.864,15.864,0,0,0-1.866.226,1.6,1.6,0,0,0-.513.165.654.654,0,0,0-.053,1.2,1.846,1.846,0,0,0,.856.194c.5,0,1.007-.1,1.512-.128A12.813,12.813,0,0,1,372.9,60.4c.859.079,1.712.237,2.565.375.372.06.3.426.341.651a.369.369,0,0,1-.4.387c-.18,0-.362.028-.541.014-.806-.065-1.611-.144-2.416-.211a6.6,6.6,0,0,0-3.457.5c-.108.051-.254.075-.317.16-.133.179-.332.406-.3.584a.632.632,0,0,0,.578.6,3.766,3.766,0,0,0,.633.007c.741-.086,1.48-.19,2.22-.286.149-.019.3-.041.447-.052a22.174,22.174,0,0,0,2.763,0,3.3,3.3,0,0,1,1.231.19.483.483,0,0,1,.344.7,3.742,3.742,0,0,1-.388.8.642.642,0,0,1-.444.238,3.389,3.389,0,0,1-1.072-.069,15.438,15.438,0,0,0-4.658-.24,4.194,4.194,0,0,0-1.035.274.9.9,0,0,0-.688.647,1.2,1.2,0,0,1-.138.328c-.285.454-.581.457-.915.046a1.534,1.534,0,0,1-.337-1.518,6.42,6.42,0,0,0,.267-3.068,3.672,3.672,0,0,0-.647-2.014.5.5,0,0,1,.005-.722c.222-.283.488-.531.734-.8a.75.75,0,0,1,.732-.263,7.757,7.757,0,0,0,2.32-.218.722.722,0,0,0,.742-.661c.035-.34.289-.615.2-1.022-.074-.33.651-.748.939-.55C372.557,55.461,373.03,55.623,373.113,56.155Z" transform="translate(-252.277 -5.868)" fill="#fff"/>
        <path id="Path_673" data-name="Path 673" d="M264.25,137.138q-27.484,0-54.967-.007c-.337,0-.707.14-1.015-.13.284-.416.7-.186,1.05-.186q54.967-.018,109.934-.011c.3,0,.6,0,.9.02.055,0,.1.109.155.167-.063.047-.124.13-.19.134-.27.018-.543.014-.814.014Z" transform="translate(-129.698 -73.982)" fill="#fff"/>
        <path id="Path_674" data-name="Path 674" d="M639.13,71.08c0-.241,0-.451,0-.661a.442.442,0,0,1,.333-.474,4.7,4.7,0,0,0,1.2-.716c.393-.26.85-.407,1.093-.855.751-.184,1.005-.9,1.48-1.383a1.33,1.33,0,0,0,.447-.661c.074-.87.687-1.511.9-2.314a5.405,5.405,0,0,1,.248-.574,2.847,2.847,0,0,0,.262-.74.7.7,0,0,1,.57-.71,1.151,1.151,0,0,1,1.177.274.868.868,0,0,1,.172,1.011c-.358.621-.766,1.214-1.156,1.817-.1.15-.219.286-.309.44-.41.706-.379.98.294,1.422a1.513,1.513,0,0,1,.545.646,1.347,1.347,0,0,0,1.236.907.457.457,0,0,1,.329.108c.272.327.681.329,1.019.491a10.29,10.29,0,0,0,2.96.535.587.587,0,0,0,.336-.041c.948-.47,1.547.194,2.33.6a2.306,2.306,0,0,1-1.26.983,10.843,10.843,0,0,1-1.861.529,4.476,4.476,0,0,1-3.674-1.334,7.286,7.286,0,0,0-1.62-1.334,4.516,4.516,0,0,1-.954-.929c-.085-.086-.163-.179-.252-.26-.492-.442-.674-.424-1.09.116-.2.261-.378.542-.591.792a3.255,3.255,0,0,1-.749.76,3.53,3.53,0,0,0-1.326,1.312c-.332.586-.782.574-1.3.482A7.487,7.487,0,0,1,639.13,71.08Z" transform="translate(-480.148 -11.42)" fill="#fff"/>
        <path id="Path_675" data-name="Path 675" d="M740.893,97.438c.365,0,.721.012,1.076,0a.624.624,0,0,0,.69-.557.252.252,0,0,0,.007-.09c-.05-.346.176-.738-.124-1.037s-.611-.062-.932-.028c-.538.058-1.086.015-1.627.048a.7.7,0,0,1-.859-.7,1.54,1.54,0,0,1,1.153-.351c.513.01,1.026,0,1.539-.013a1.556,1.556,0,0,0,.534-.053.549.549,0,0,0,.268-.323.337.337,0,0,0-.157-.288,2.376,2.376,0,0,0-.844-.269c-1.357-.023-2.721-.077-4.072.025a16.83,16.83,0,0,0-2.98.586c-.515.135-1.085.017-1.558.391a.5.5,0,0,1-.729-.09,1.227,1.227,0,0,1-.054-.771.531.531,0,0,1,.593-.452,9.018,9.018,0,0,0,2.121-.2c.773-.088,1.553-.117,2.33-.179a16.77,16.77,0,0,1,2.146-.169c1.493.076,2.986-.174,4.47,0a22.188,22.188,0,0,1,2.478.094,6.988,6.988,0,0,0,1.873-.095,2.261,2.261,0,0,1,.342.028c.02.988-.256,1.278-1.117,1.379a6.915,6.915,0,0,1-1.761-.28,5.587,5.587,0,0,0-.969-.04.337.337,0,0,0-.231.241c0,.13.079.332.177.371a5.711,5.711,0,0,0,.943.259c.145.031.3-.007.45.023.307.064.659.435.551.606a.924.924,0,0,1-.541.394,2.6,2.6,0,0,1-.888-.052c-.648-.112-.878.062-.892.715-.007.3.006.6-.017.9a1.372,1.372,0,0,1-1.391,1.362c-.181,0-.362.011-.543.016C741.289,98.881,741.079,98.689,740.893,97.438Z" transform="translate(-557.91 -37.597)" fill="#fff"/>
        <path id="Path_676" data-name="Path 676" d="M236.562,103.1a5.178,5.178,0,0,1-.595,0,.61.61,0,0,1-.477-.921c.043-.079.126-.141.152-.223.158-.5.755-.817.565-1.456-.141-.472.118-1-.189-1.454-.207-.307-.084-.515.221-.636a1.852,1.852,0,0,1,1.273-.218,3,3,0,0,0,1.348.015,20.851,20.851,0,0,1,4.139-.11,1.85,1.85,0,0,1,1.43.846,1.031,1.031,0,0,1,.039.851,13.212,13.212,0,0,0-.908,2.24c-.085.388-.746.677-1.166.613a15.893,15.893,0,0,0-1.684-.238,7.2,7.2,0,0,0-3.409.573A2.344,2.344,0,0,1,236.562,103.1Zm3.934-1.966c.421,0,.814.023,1.2-.006.434-.032.916-.539.887-.883a1.218,1.218,0,0,0-1.077-.917c-.792.043-1.584.129-2.375.129a1.924,1.924,0,0,0-1.837,1.036,1.254,1.254,0,0,0-.2.814c.094.329.41.012.629.044.293.043.669.208.865.087A3.579,3.579,0,0,1,240.5,101.13Z" transform="translate(-142.985 -41.893)" fill="#fff"/>
        <path id="Path_677" data-name="Path 677" d="M332.6,63.385c0-.784,0-1.569,0-2.353a7.294,7.294,0,0,0-.029-.814c-.1-.876-.582-1.151-1.372-.783a5.655,5.655,0,0,0-1.878,1.22.571.571,0,0,1-.134.12c-.226.125-.419.386-.72.246a1.008,1.008,0,0,1-.388-1.031A10.743,10.743,0,0,1,328.5,59a1.12,1.12,0,0,1,.794-.543,10.973,10.973,0,0,0,2.631-1.057,19.2,19.2,0,0,0,1.734-1.111,1.047,1.047,0,0,1,.929-.191c.217.052.515.129.5.433-.013.276.128.614-.235.807-.236.126-.447.3-.679.435a1.38,1.38,0,0,0-.776,1.611c.083.958.036,1.927.095,2.888.044.713.172,1.421.25,2.133a3.718,3.718,0,0,1,.043.985,2.1,2.1,0,0,0,0,1.229.748.748,0,0,1-.159.565c-.277.4-.611.386-.831-.045a2.054,2.054,0,0,1-.206-.854c-.025-.965-.009-1.93-.009-2.9Z" transform="translate(-220.216 -6.599)" fill="#fff"/>
        <path id="Path_678" data-name="Path 678" d="M757.7,78.767c-.062.72-.534.833-.974.89a8.064,8.064,0,0,1-1.063-.084,8.13,8.13,0,0,0-1.148.085c-.064.008-.132.17-.147.269-.007.043.121.156.179.151.471-.043.916.15,1.41.066a10.306,10.306,0,0,1,1.894-.024.341.341,0,0,1,.268.155.352.352,0,0,1-.075.323c-.252.142-.617.407-.781.321-.566-.3-1.112.052-1.671-.072a6.421,6.421,0,0,0-1.621-.034c-1.139.046-2.277.109-3.415.183-.325.021-.645.121-.971.155-.2.02-.487.066-.474-.245.011-.258.1-.549.435-.6a3.314,3.314,0,0,1,.452-.011c.6-.009,1.207,0,1.808-.036a3.158,3.158,0,0,0,.777-.193.243.243,0,0,0,.1-.215.24.24,0,0,0-.182-.143c-.63.012-1.26.033-1.889.066a5.057,5.057,0,0,1-.706.086c-.139-.013-.263-.179-.394-.276.1-.129.176-.335.3-.373a4.47,4.47,0,0,1,1.058-.179C753.122,78.934,755.374,78.855,757.7,78.767Z" transform="translate(-571.509 -25.688)" fill="#fff"/>
        <path id="Path_679" data-name="Path 679" d="M750.139,73.471l.562-.555a5.2,5.2,0,0,0-2.39-.326c-1.418-.022-2.842-.065-4.254.036a20.293,20.293,0,0,0-4.5.49,1.906,1.906,0,0,1-.719.016c-.1-.01-.263-.121-.266-.192-.006-.132.052-.355.14-.388a3.605,3.605,0,0,1,1.028-.259c.783-.045,1.57-.015,2.354-.045,1.8-.07,3.6-.2,5.4-.156,1.116.027,2.234-.017,3.351.006.445.009.887.124,1.333.173a.559.559,0,0,1,.484.569.709.709,0,0,1-.325.572,8.23,8.23,0,0,1-1.455.438A.665.665,0,0,1,750.139,73.471Z" transform="translate(-563.066 -20.097)" fill="#fff"/>
        <path id="Path_680" data-name="Path 680" d="M741.555,108.065c-.469.084-.939.165-1.407.254a7.339,7.339,0,0,1-.785.163c-.58.044-.607,0-.794-.6-.079-.255-.226-.49-.294-.747-.088-.329.047-.558.338-.59,1.22-.135,2.439-.292,3.663-.369.848-.054,1.035.334.634,1.126-.13.257-.166.651-.367.761a2.462,2.462,0,0,1-.975.088Zm-1.493-.448c.425-.088.8-.144,1.167-.254.1-.03.171-.212.211-.338.01-.03-.162-.173-.244-.168a7.772,7.772,0,0,0-1.218.145c-.1.023-.207.257-.215.4C739.759,107.473,739.972,107.556,740.062,107.617Z" transform="translate(-562.174 -48.567)" fill="#fff"/>
        <path id="Path_681" data-name="Path 681" d="M489.107,103.932c.587-.255,1.164-.54,1.765-.755a.534.534,0,0,1,.643.679c-.031.145-.062.291-.106.432a.483.483,0,0,1-.671.352c-.538-.159-1.067-.344-1.6-.519Z" transform="translate(-354.349 -46.012)" fill="#fff"/>
        <path id="Path_682" data-name="Path 682" d="M769.872,114.852c-.3-.024-.807-.771-.667-1.045a.627.627,0,0,1,.413-.292,2.223,2.223,0,0,0,1.343-.379c.073-.065.286,0,.423.049a.27.27,0,0,1,.087.213c-.488.46-.741,1.159-1.428,1.416A1.216,1.216,0,0,1,769.872,114.852Z" transform="translate(-587.797 -54.331)" fill="#fff"/>
        <path id="Path_683" data-name="Path 683" d="M465.462,105.462c-.434.247-.861.508-1.305.736a.568.568,0,0,1-.733-.128c-.138-.153-.308-.281-.169-.537s.27-.575.635-.529c.52.065,1.033.183,1.549.278Z" transform="translate(-332.751 -47.547)" fill="#fff"/>
        <path id="Path_684" data-name="Path 684" d="M481.671,82.639c1.008-.2,1.867-.376,2.73-.536.184-.034.4.017.385.252a1.394,1.394,0,0,1-.194.545c-.028.054-.163.072-.248.071A5.9,5.9,0,0,1,481.671,82.639Z" transform="translate(-348.177 -28.43)" fill="#fff"/>
        <path id="Path_685" data-name="Path 685" d="M739.457,154.688c-.012.3-.254.472-.634.452a.573.573,0,0,1-.546-.566.559.559,0,0,1,.6-.515A.592.592,0,0,1,739.457,154.688Z" transform="translate(-561.968 -88.456)" fill="#fff"/>
        <path id="Path_686" data-name="Path 686" d="M585.454,154.7c-.017.3-.262.467-.642.443a.576.576,0,0,1-.537-.575.55.55,0,0,1,.61-.5A.582.582,0,0,1,585.454,154.7Z" transform="translate(-433.617 -88.458)" fill="#fff"/>
        <path id="Path_687" data-name="Path 687" d="M404.2,154.648c.009.355-.116.5-.448.509-.432.017-.632-.159-.624-.547a.481.481,0,0,1,.554-.531C404.027,154.086,404.188,154.264,404.2,154.648Z" transform="translate(-282.638 -88.471)" fill="#fff"/>
      </g>
      <g id="Menu" transform="translate(13.5 -7.5)">
        <line id="Line_5" data-name="Line 5" x2="20.668" transform="translate(20.5 56.5)" fill="none" stroke="#fff" stroke-linecap="round" stroke-width="2"/>
        <line id="Line_6" data-name="Line 6" x2="20.668" transform="translate(20.5 62.25)" fill="none" stroke="#fff" stroke-linecap="round" stroke-width="2"/>
        <line id="Line_7" data-name="Line 7" x2="20.668" transform="translate(20.5 68)" fill="none" stroke="#fff" stroke-linecap="round" stroke-width="2"/>
      </g>
      <text id="MENU-2" data-name="MENU" transform="translate(44 75)" fill="#fff" font-size="10" font-family="SFProDisplay-Medium, SF Pro Display" font-weight="500" letter-spacing="0.05em"><tspan x="-14.786" y="0">MENU</tspan></text>
      <text id="上次登入時間_20_03_09_13:45:13" data-name="上次登入時間：20/03/09 13:45:13" transform="translate(130 107)" fill="rgba(255,255,255,0.7)" font-size="12" font-family="PingFangTC-Regular, PingFang TC" letter-spacing="0.05em"><tspan x="-101.391" y="0">上次登入時間：</tspan><tspan y="0" font-family="SFProText-Regular, SF Pro Text">20/03/09 13:45:13</tspan></text>
      <text id="自動登出尚餘_14:58" data-name="自動登出尚餘：14:58" transform="translate(325 107)" fill="#e2ceb4" font-size="12" font-family="PingFangTC-Regular, PingFang TC" letter-spacing="0.05em"><tspan x="-62.79" y="0">自動登出尚餘：</tspan><tspan y="0" font-family="SFProText-Bold, SF Pro Text" font-weight="700">14:58</tspan></text>
    </g>
    <path id="Path_1956" data-name="Path 1956" d="M-48.3-6.87a24.321,24.321,0,0,1-5.79,5.7l1.92,2.49a27.287,27.287,0,0,0,6.03-6.3Zm9.09-.09-1.92,2.13a45.742,45.742,0,0,1,5.91,6.09l2.1-2.31A51.668,51.668,0,0,0-39.21-6.96ZM-54.99-24.93A32.921,32.921,0,0,1-61.41-12.9l1.05,3.36c.9-.96,1.77-1.95,2.55-2.97V3.18h3.18V-17.37a33.5,33.5,0,0,0,2.61-6.15Zm4.05,1.5v10.14h5.73v2.37h-7.98v3.06h7.98V3.15h3.12V-7.86h8.28v-3.06h-8.28v-2.37h5.79V-23.43Zm11.55,7.14h-8.46v-4.14h8.46Zm11.76-7.47v6.69h10.92v-6.69Zm7.86,4.44H-24.6v-2.19h4.83Zm4.95-4.44v6.69H-3.87v-6.69ZM-6.9-19.2h-4.89v-2.37H-6.9Zm-19.65,3.45V-5.19h9.21v1.68H-28.83V-.87h11.49V3.09h3.18V-.87H-2.67V-3.51H-14.16V-5.19h9.21V-15.75Zm18.51,8.1h-6.12V-9.39h6.12Zm-9.3,0h-6.12V-9.39h6.12Zm-6.12-3.9v-1.74h6.12v1.74Zm9.3-1.74h6.12v1.74h-6.12ZM25.08,2.85c2.4,0,3.63-1.26,3.63-3.75V-24.42H25.59V-1.68c0,1.14-.54,1.74-1.62,1.74C22.86.06,21.66,0,20.4-.12l.72,2.97ZM19.2-22.14V-3.36h3.06V-22.14ZM2.76-23.7v3.06H7.02a17.528,17.528,0,0,1-5.01,10.5L3.54-7.2A20,20,0,0,0,5.55-9.39a33.643,33.643,0,0,1,4.59,2.97A18.723,18.723,0,0,1,2.55.09L4.08,2.88c6.9-3.3,10.95-9.15,12.21-17.58v-2.76H9.42c.27-1.02.48-2.07.66-3.18h7.53V-23.7ZM7.14-11.76a26.269,26.269,0,0,0,1.35-2.76h4.86a25.609,25.609,0,0,1-1.8,5.55A37.317,37.317,0,0,0,7.14-11.76ZM35.19-22.35v2.88H45.66v1.95H36.93v2.88h8.73v2.01H34.5v2.85h8.55c-2.16,2.22-5.43,4.02-9.75,5.46l1.68,2.73A37.779,37.779,0,0,0,39.66-3.9V-.63A1.265,1.265,0,0,1,38.94.51l1.02,2.67A71.582,71.582,0,0,0,49.35.09l-.63-2.88c-1.98.84-3.99,1.56-6,2.22V-6a18.908,18.908,0,0,0,3.66-3.78H60v-2.85H48.84v-2.01h8.73v-2.88H48.84v-1.95H59.31v-2.88H48.84v-2.22H45.66v2.22ZM56.91-8.94a15.525,15.525,0,0,1-4.59,3.6,14.742,14.742,0,0,1-1.95-3.27L48-7.26A18.936,18.936,0,0,0,59.34,3.18L61.2.42a18.318,18.318,0,0,1-7.05-3.81,16.522,16.522,0,0,0,4.92-3.42Z" transform="translate(84 191)" fill="#213938"/>
    <g id="Group_910" data-name="Group 910" transform="translate(-2 -2)">
      <g transform="matrix(1, 0, 0, 1, 2, 2)" filter="url(#Union_3)">
        <path id="Union_3-2" data-name="Union 3" d="M63.795,36.341,56.23,28.883H2a7,7,0,0,1-7-7V4A7,7,0,0,1,2-3H91a7,7,0,0,1,7,7V21.883a7,7,0,0,1-7,7H65.9l-.4,6.806a1,1,0,0,1-1,.942A.981.981,0,0,1,63.795,36.341Z" transform="translate(292 168)" fill="#fff"/>
      </g>
      <text id="王先生_您好_" data-name="王先生 您好！" transform="translate(301.141 186.813)" fill="#213938" font-size="14" font-family="PingFangTC-Semibold, PingFang TC" font-weight="600" letter-spacing="0.05em"><tspan x="0" y="0">王先生</tspan><tspan y="0" font-family="SFProText-Bold, SF Pro Text" font-weight="700"> </tspan><tspan y="0" font-size="10" font-family="PingFangTC-Medium, PingFang TC" font-weight="500">您好！</tspan></text>
      <g id="Group_908" data-name="Group 908" transform="matrix(0.996, 0.087, -0.087, 0.996, 230.966, 153.742)" opacity="0.852">
        <g id="Group_906" data-name="Group 906" transform="translate(134.24 26.825)">
          <g id="Group_904" data-name="Group 904">
            <g id="Group_870" data-name="Group 870" transform="translate(16.907 39.75)">
              <path id="Path_1537" data-name="Path 1537" d="M157.91,80.444s1.505-.085,1.1-2.3c0,0-.352-1.668-2.307-1.024,0,0-.928.412-1.03,1.146C155.677,78.27,154.83,80.81,157.91,80.444Z" transform="translate(-155.57 -76.976)" fill="#e4898b"/>
            </g>
            <g id="Group_873" data-name="Group 873" transform="translate(37.043 27.797)">
              <g id="Group_871" data-name="Group 871">
                <path id="Path_1538" data-name="Path 1538" d="M182.174,61.9s.149.639-1.2.763Z" transform="translate(-180.976 -61.895)" fill="#231815"/>
              </g>
              <g id="Group_872" data-name="Group 872" transform="translate(0.495 5.776)">
                <path id="Path_1539" data-name="Path 1539" d="M181.6,69.555a1.244,1.244,0,0,1,1.641-.137Z" transform="translate(-181.601 -69.182)" fill="#231815"/>
              </g>
            </g>
            <g id="Group_874" data-name="Group 874" transform="translate(10.921 39.414)" opacity="0.53" style="mix-blend-mode: multiply;isolation: isolate">
              <path id="Path_1540" data-name="Path 1540" d="M150.982,77.422s-1.645-1.21-2.964-.777C148.018,76.645,148.791,78.627,150.982,77.422Z" transform="translate(-148.018 -76.552)" fill="#da524d"/>
            </g>
            <g id="Group_875" data-name="Group 875" transform="translate(32.311 36.567)">
              <path id="Path_1541" data-name="Path 1541" d="M183.407,72.96s1.924,4.424-.758,3.809c0,0-3.751,4.086-5.571,2.088a7.864,7.864,0,0,1-2.072-3.8" transform="translate(-175.006 -72.96)" fill="#522c1a"/>
            </g>
            <g id="Group_876" data-name="Group 876" transform="translate(34.052 30.581)">
              <path id="Path_1542" data-name="Path 1542" d="M182.878,72.315a3.558,3.558,0,0,1-5.065-.858h0a3.821,3.821,0,0,1,1.022-5.191l.224-.161a3.562,3.562,0,0,1,5.068.855h0a3.825,3.825,0,0,1-1.023,5.193Z" transform="translate(-177.202 -65.408)" fill="#f8dcc6"/>
            </g>
            <g id="Group_877" data-name="Group 877" transform="translate(37.398 34.227)" opacity="0.38" style="mix-blend-mode: multiply;isolation: isolate">
              <path id="Path_1543" data-name="Path 1543" d="M181.685,71.114s1.161,1.981,1.932-.337c0,0,.506-1.294.557-.526,0,0-.331,1.592-1.025,2,0,0-.75.311-1.726-.782" transform="translate(-181.424 -70.008)" fill="#f8dcc6"/>
            </g>
            <g id="Group_878" data-name="Group 878" transform="translate(1.511 5.362)">
              <path id="Path_1544" data-name="Path 1544" d="M137.587,54.919s-6.919,18.771,9.571,22.443c0,0,27.866,6.971,24.581-22.957C168.146,21.661,153.32,31.991,137.587,54.919Z" transform="translate(-136.147 -33.59)" fill="#f8dcc6"/>
            </g>
            <g id="Group_879" data-name="Group 879" transform="translate(2.234 33.72)" opacity="0.38" style="mix-blend-mode: multiply;isolation: isolate">
              <path id="Path_1545" data-name="Path 1545" d="M142.941,73.97a3.074,3.074,0,1,1-1.334-4.325A3.207,3.207,0,0,1,142.941,73.97Z" transform="translate(-137.059 -69.368)" fill="#f8dcc6"/>
            </g>
            <g id="Group_880" data-name="Group 880" transform="translate(25.466 37.581)" opacity="0.38" style="mix-blend-mode: multiply;isolation: isolate">
              <path id="Path_1546" data-name="Path 1546" d="M174.775,78.51a4.218,4.218,0,1,1-3.9-4.259A4.087,4.087,0,0,1,174.775,78.51Z" transform="translate(-166.369 -74.239)" fill="#f8dcc6"/>
            </g>
            <g id="Group_881" data-name="Group 881" transform="translate(0 17.022)">
              <path id="Path_1547" data-name="Path 1547" d="M141.04,49.574s-9.195,2.62-6.2,7.106c0,0,2.57,3.342,7.726-1.813C149.577,47.859,145.775,47.127,141.04,49.574Z" transform="translate(-134.24 -48.301)" fill="#522c1a"/>
            </g>
            <g id="Group_887" data-name="Group 887" transform="translate(8.241 15.983)">
              <g id="Group_882" data-name="Group 882" transform="translate(5.096 0.729)">
                <path id="Path_1548" data-name="Path 1548" d="M153.681,50.211s-5.578,7.692-.438,9.323c0,0,3.841,1.143,4.435-6.125S156.021,47.193,153.681,50.211Z" transform="translate(-151.066 -47.909)" fill="#522c1a"/>
              </g>
              <g id="Group_883" data-name="Group 883">
                <path id="Path_1549" data-name="Path 1549" d="M148.768,48.6s-7.207,6.194-2.583,8.97c0,0,3.472,2,5.731-4.936S151.74,46.206,148.768,48.6Z" transform="translate(-144.637 -46.99)" fill="#522c1a"/>
              </g>
              <g id="Group_884" data-name="Group 884" transform="translate(11.545 0.648)">
                <path id="Path_1550" data-name="Path 1550" d="M159.532,51.183s-1.982,9.346,3.776,8.612c0,0,4.264-.617,1.569-7.439S160.458,47.453,159.532,51.183Z" transform="translate(-159.202 -47.807)" fill="#522c1a"/>
              </g>
              <g id="Group_885" data-name="Group 885" transform="translate(17.481 1.389)">
                <path id="Path_1551" data-name="Path 1551" d="M166.7,53.289s.733,11.25,7.037,8.574c0,0,4.646-2.062-.594-8.948S166.56,48.755,166.7,53.289Z" transform="translate(-166.692 -48.742)" fill="#522c1a"/>
              </g>
              <g id="Group_886" data-name="Group 886" transform="translate(24.481 5.402)">
                <path id="Path_1552" data-name="Path 1552" d="M175.523,55.956s.767,14.069,5.791,11.732c0,0,2.856-.134,2.077-5.857C183.391,61.832,178.995,48.79,175.523,55.956Z" transform="translate(-175.523 -53.806)" fill="#522c1a"/>
              </g>
            </g>
            <g id="Group_897" data-name="Group 897" transform="translate(0.3)">
              <g id="Group_888" data-name="Group 888" transform="translate(27.331)">
                <path id="Path_1553" data-name="Path 1553" d="M174.741,29.773c-.324,1.029-1.836,1.468-3.377.977s-2.525-1.719-2.2-2.75,1.838-1.466,3.38-.975S175.067,28.743,174.741,29.773Z" transform="translate(-169.101 -26.825)" fill="#168969"/>
              </g>
              <g id="Group_889" data-name="Group 889" transform="translate(4.425 1.673)">
                <path id="Path_1554" data-name="Path 1554" d="M140.2,44.324c-.027,1.761,8.458.229,15.951,1.869a49.016,49.016,0,0,1,11.225,3.994c4.042,1.958,8.525,6.011,9.1,5.929,1.137-.171,9.457-23.368-13.25-26.74C140.875,26.059,140.226,42.565,140.2,44.324Z" transform="translate(-140.201 -28.936)" fill="#9ec175"/>
              </g>
              <g id="Group_890" data-name="Group 890" transform="translate(9.403 1.798)">
                <path id="Path_1555" data-name="Path 1555" d="M169.41,30.58a10.438,10.438,0,0,0-6.728,6.444,60.079,60.079,0,0,0-2.606,8.358l-13.595-2.593s-.048-2.516,4.28-9.214C155.837,25.721,169.41,30.58,169.41,30.58Z" transform="translate(-146.482 -29.094)" fill="#168969"/>
              </g>
              <g id="Group_891" data-name="Group 891" transform="translate(0 14.069)">
                <path id="Path_1556" data-name="Path 1556" d="M134.963,48.02c.728-.857,8.289-4.945,19.381-2.858,6.623,1.249,11.492,6.167,12.267,8.059a3.249,3.249,0,0,1-.574,2.145c-1.716,1.462-13.37-5.065-18.507-6.1-6.376-1.282-8.417.578-10.685,1.328S134.23,48.873,134.963,48.02Z" transform="translate(-134.618 -44.575)" fill="#9ec175"/>
              </g>
              <g id="Group_892" data-name="Group 892" transform="translate(0.652 13.273)">
                <path id="Path_1557" data-name="Path 1557" d="M135.441,47.666s7.087-5.727,18.182-3.636c8.15,1.535,14.759,8.261,13.047,9.717s-11.3-5.893-19.172-6.818c-7.277-.858-7.542.665-9.808,1.413S135.441,47.666,135.441,47.666Z" transform="translate(-135.441 -43.571)" fill="#9ec175"/>
              </g>
              <g id="Group_893" data-name="Group 893" transform="translate(34.859 5.068)">
                <path id="Path_1558" data-name="Path 1558" d="M179.846,33.219s12.32,6.554,4.943,23.551a.413.413,0,0,1-.614.193L178.6,52.979S186.944,45.251,179.846,33.219Z" transform="translate(-178.599 -33.219)" fill="#168969"/>
              </g>
              <g id="Group_896" data-name="Group 896" transform="translate(14.942 5.264)">
                <g id="Group_894" data-name="Group 894" transform="translate(3.251 2.248)">
                  <path id="Path_1559" data-name="Path 1559" d="M160,36.416a1.8,1.8,0,0,0-2.311,1.091,1.828,1.828,0,0,0,1.045,2.352,1.8,1.8,0,0,0,2.313-1.09A1.834,1.834,0,0,0,160,36.416Zm-.291,2.5L158.6,38.5l.418-1.137,1.106.414Z" transform="translate(-157.572 -36.303)" fill="#f6f094"/>
                </g>
                <g id="Group_895" data-name="Group 895">
                  <path id="Path_1560" data-name="Path 1560" d="M159.6,34.6h0a.326.326,0,0,0-.185-.418l0,0-1.39-.514,0,0a3.4,3.4,0,0,0-4.335,2.083,3.46,3.46,0,0,0,1.976,4.452v0l1.355.5h0a.31.31,0,0,0,.4-.191h0l.465-1.257-1.686-.627h0a1.813,1.813,0,0,1-.993-2.315,1.787,1.787,0,0,1,2.257-1.1l0,0,1.672.631Z" transform="translate(-153.47 -33.466)" fill="#f6f094"/>
                </g>
              </g>
            </g>
            <g id="Group_898" data-name="Group 898" transform="translate(11.792 35.592)">
              <path id="Path_1561" data-name="Path 1561" d="M151.672,72.87c-.083.487-.721.772-1.426.644s-1.2-.627-1.118-1.11.724-.77,1.427-.642S151.758,72.385,151.672,72.87Z" transform="translate(-149.118 -71.73)" fill="#ebc3a7"/>
            </g>
            <g id="Group_899" data-name="Group 899" transform="translate(4.317 24.892)">
              <path id="Path_1562" data-name="Path 1562" d="M139.686,58.439a4.838,4.838,0,0,1,6.041,3.128Z" transform="translate(-139.686 -58.23)" fill="#522c1a"/>
            </g>
            <g id="Group_900" data-name="Group 900" transform="translate(21.22 28.148)">
              <path id="Path_1563" data-name="Path 1563" d="M161.012,63.851a4.887,4.887,0,0,1,6.837-.219Z" transform="translate(-161.012 -62.338)" fill="#522c1a"/>
            </g>
            <g id="Group_903" data-name="Group 903" transform="translate(11.615 38.017)">
              <g id="Group_902" data-name="Group 902" style="mix-blend-mode: multiply;isolation: isolate">
                <g id="Group_901" data-name="Group 901">
                  <path id="Path_1564" data-name="Path 1564" d="M154.032,74.79a9.286,9.286,0,0,1-5.134.219,2.438,2.438,0,0,0,2.607,2.678A2.577,2.577,0,0,0,154.032,74.79Z" transform="translate(-148.894 -74.79)" fill="#e4898b"/>
                </g>
              </g>
            </g>
          </g>
          <g id="Group_905" data-name="Group 905" transform="translate(19.201 32.497)">
            <path id="Path_1565" data-name="Path 1565" d="M166.128,72.256a.454.454,0,0,1-.232-.132c-.031-.032-3.126-3.265-6.854-2.169a.449.449,0,0,1-.384-.8,7.638,7.638,0,0,1,7.45-.587.45.45,0,0,1-.407.8,6.05,6.05,0,0,0-4.084-.478,9.308,9.308,0,0,1,4.936,2.616.45.45,0,0,1-.424.747Z" transform="translate(-158.465 -67.826)" fill="#2d0e08"/>
          </g>
        </g>
        <g id="Group_907" data-name="Group 907" transform="translate(136.943 54.854)">
          <circle id="Ellipse_15" data-name="Ellipse 15" cx="3.927" cy="3.927" r="3.927" fill="#fff"/>
          <path id="Path_1566" data-name="Path 1566" d="M138.4,66.152a2.2,2.2,0,1,0,2.012-2.326A2.17,2.17,0,0,0,138.4,66.152Z" transform="translate(-137.805 -62.527)" fill="#2d0e08"/>
        </g>
      </g>
    </g>
    <path id="Path_1959" data-name="Path 1959" d="M-14.68-11.766H-11.4a2.778,2.778,0,0,1,2.965-2.766,2.4,2.4,0,0,1,2.566,2.391c0,1.172-.48,1.98-2.625,4.043l-5.988,5.672V0H-2.188V-2.812H-9.852v-.07l3.551-3.4c2.859-2.73,3.879-4.008,3.879-6.082,0-2.812-2.391-4.922-6.012-4.922C-12.1-17.285-14.68-15.023-14.68-11.766ZM7.813.375C12.1.375,14.7-3.035,14.7-8.5s-2.625-8.8-6.891-8.8-6.9,3.352-6.9,8.813S3.524.375,7.813.375Zm0-2.836c-2.086,0-3.3-2.145-3.3-6.023,0-3.844,1.242-5.977,3.3-5.977s3.293,2.121,3.293,5.977C11.106-4.605,9.9-2.461,7.813-2.461Z" transform="translate(298 244)" fill="#3e4843"/>
    <g id="Group_1036" data-name="Group 1036" transform="translate(165 825)">
      <text id="顯示更多保單" transform="translate(42 17)" fill="#3e6b69" font-size="16" font-family="PingFangTC-Medium, PingFang TC" font-weight="500" letter-spacing="0.05em" text-decoration="underline"><tspan x="-50" y="0">顯示更多保單</tspan></text>
    </g>
    <g id="Group_1116" data-name="Group 1116">
      <path id="Rectangle_1662" data-name="Rectangle 1662" d="M10,0H384a10,10,0,0,1,10,10V60a0,0,0,0,1,0,0H0a0,0,0,0,1,0,0V10A10,10,0,0,1,10,0Z" transform="translate(10 258)" fill="#3e6b69"/>
      <text id="保單號碼" transform="translate(116 292)" fill="#fff" font-size="16" font-family="PingFangTC-Medium, PingFang TC" font-weight="500" letter-spacing="0.05em"><tspan x="0" y="0">保單號碼</tspan></text>
      <text id="保單狀態" transform="translate(217 292)" fill="#fff" font-size="16" font-family="PingFangTC-Medium, PingFang TC" font-weight="500" letter-spacing="0.05em"><tspan x="0" y="0">保單狀態</tspan></text>
      <g id="Group_1090" data-name="Group 1090" transform="translate(7 3)">
        <text id="要保人" transform="translate(25 281)" fill="#fff" font-size="16" font-family="PingFangTC-Medium, PingFang TC" font-weight="500" letter-spacing="0.05em"><tspan x="0" y="0">要保人</tspan></text>
        <text id="被保人" transform="translate(25 303)" fill="#fff" font-size="16" font-family="PingFangTC-Medium, PingFang TC" font-weight="500" letter-spacing="0.05em"><tspan x="0" y="0">被保人</tspan></text>
      </g>
    </g>
    <g id="Group_1126" data-name="Group 1126">
      <g id="Group_1087" data-name="Group 1087" transform="translate(-11761 -304)">
        <text id="王_明" data-name="王＊明" transform="translate(11814 657)" fill="#3e6b69" font-size="14" font-family="PingFangTC-Medium, PingFang TC" font-weight="500" letter-spacing="0.05em"><tspan x="-21.7" y="0">王＊明</tspan></text>
      </g>
      <g id="Group_1091" data-name="Group 1091" transform="translate(-11690 -295)">
        <text id="TES0000021" transform="translate(11839 657)" fill="#5a5a5a" font-size="14" font-family="SFProText-Medium, SF Pro Text" font-weight="500" letter-spacing="0.05em" text-decoration="underline"><tspan x="-46.879" y="0">TES0000021</tspan></text>
      </g>
      <g id="Group_1089" data-name="Group 1089" transform="translate(-11761 -284)">
        <text id="王_明-2" data-name="王＊明" transform="translate(11814 657)" fill="#5a5a5a" font-size="14" font-family="PingFangTC-Medium, PingFang TC" font-weight="500" letter-spacing="0.05em"><tspan x="-21.7" y="0">王＊明</tspan></text>
      </g>
      <g id="Group_1016" data-name="Group 1016" transform="translate(82 -29)">
        <text id="有效" transform="translate(152 391)" fill="#3e6b69" font-size="16" font-family="PingFangTC-Medium, PingFang TC" font-weight="500" letter-spacing="0.025em"><tspan x="0" y="0">有效</tspan></text>
      </g>
      <g id="Group_1125" data-name="Group 1125" transform="translate(-8)">
        <rect id="Rectangle_1665" data-name="Rectangle 1665" width="90" height="25" rx="12" transform="translate(308 344)" fill="#3e6b69"/>
        <text id="線上變更" transform="translate(321 362)" fill="#fff" font-size="16" font-family="PingFangTC-Medium, PingFang TC" font-weight="500" letter-spacing="0.025em"><tspan x="0" y="0">線上變更</tspan></text>
      </g>
      <path id="Path_1588" data-name="Path 1588" d="M0,0H376" transform="translate(19.5 398)" fill="none" stroke="rgba(90,90,90,0.5)" stroke-width="1"/>
    </g>
    <path id="Path_1960" data-name="Path 1960" d="M7.52-3.632A13.5,13.5,0,0,1,4.384-.512l.928,1.2A14.572,14.572,0,0,0,8.56-2.72Zm4.7-.048L11.3-2.656A26.167,26.167,0,0,1,14.5.64L15.5-.464A24.969,24.969,0,0,0,12.224-3.68ZM3.952-13.248A18.117,18.117,0,0,1,.464-6.768l.5,1.616A21.957,21.957,0,0,0,2.448-6.9V1.68H3.984V-9.264a18.55,18.55,0,0,0,1.408-3.328Zm2.112.784v5.312h3.1v1.408H4.848v1.472h4.32v5.92h1.5v-5.92h4.48V-5.744h-4.48V-7.152h3.136v-5.312ZM12.3-8.608H7.568v-2.4H12.3ZM18.5-12.64v3.5h5.76v-3.5Zm4.272,2.4h-2.8v-1.3h2.8Zm2.56-2.4v3.5h5.76v-3.5Zm4.288,2.464h-2.8v-1.392h2.8ZM19.088-8.352v5.536h4.944v1.008H17.84v1.3h6.192V1.632h1.536V-.512h6.176v-1.3H25.568V-2.816h4.944V-8.352Zm9.936,4.336H25.568v-1.04h3.456Zm-4.992,0H20.576v-1.04h3.456ZM20.576-6.128V-7.152h3.456v1.024Zm4.992-1.024h3.456v1.024H25.568Zm18.288-5.92v2.912h-1.44v1.392h1.44v.592C43.824-4.448,43.1-1.648,41.664.208V-.544c-.848.1-1.76.192-2.752.288v-.992H41.68V-2.5H38.912v-.848h2.816v-5.1H38.912v-.768h3.056v-1.248H38.912v-.944a19.734,19.734,0,0,0,2.944-.5l-.672-1.152a31.191,31.191,0,0,1-6.784.64l.4,1.2c.944,0,1.84-.032,2.672-.08v.832H34.336v1.248h3.136v.768h-2.8v5.1h2.8V-2.5H34.72v1.248h2.752v1.12c-1.04.064-2.128.144-3.28.208l.192,1.344c2.64-.16,5.008-.384,7.088-.64l.912.8c1.888-2.048,2.848-5.312,2.9-9.76v-.592h1.744c-.032,4.464-.1,7.088-.192,7.888-.1.7-.4,1.056-.928,1.056-.48,0-1.056-.032-1.7-.08l.368,1.344c.736.032,1.248.064,1.536.064A1.849,1.849,0,0,0,48.224-.224q.216-1.872.224-9.936H45.28v-2.912Zm-3.5,8.608H38.816v-.928h1.536Zm-2.784,0h-1.52v-.928h1.52Zm-1.52-1.952v-.928h1.52v.928Zm2.768-.928h1.536v.928H38.816ZM58.3-9.5h.576V1.68h1.536V-1.936h4.528V-3.392H60.416V-5.744h4.5V-7.216h-4.5V-9.5h5.136v-1.488H58.96c.24-.608.48-1.248.7-1.92l-1.536-.336a19.54,19.54,0,0,1-3.392,6.416L55.824-5.52A19.915,19.915,0,0,0,58.3-9.5Zm-5.456,2.64V1.68h1.536V-9.072a18.8,18.8,0,0,0,1.584-3.456l-1.44-.672A17.193,17.193,0,0,1,50.88-6.88l.512,1.632C51.9-5.776,52.4-6.32,52.848-6.864Z" transform="translate(313 292)" fill="#fff"/>
    <g id="Group_1127" data-name="Group 1127" transform="translate(0 80)">
      <g id="Group_1087-2" data-name="Group 1087" transform="translate(-11761 -304)">
        <text id="王_明-3" data-name="王＊明" transform="translate(11814 657)" fill="#3e6b69" font-size="14" font-family="PingFangTC-Medium, PingFang TC" font-weight="500" letter-spacing="0.05em"><tspan x="-21.7" y="0">王＊明</tspan></text>
      </g>
      <g id="Group_1091-2" data-name="Group 1091" transform="translate(-11690 -295)">
        <text id="TES0000021-2" data-name="TES0000021" transform="translate(11839 657)" fill="#5a5a5a" font-size="14" font-family="SFProText-Medium, SF Pro Text" font-weight="500" letter-spacing="0.05em" text-decoration="underline"><tspan x="-46.879" y="0">TES0000021</tspan></text>
      </g>
      <g id="Group_1089-2" data-name="Group 1089" transform="translate(-11761 -284)">
        <text id="王_明-4" data-name="王＊明" transform="translate(11814 657)" fill="#5a5a5a" font-size="14" font-family="PingFangTC-Medium, PingFang TC" font-weight="500" letter-spacing="0.05em"><tspan x="-21.7" y="0">王＊明</tspan></text>
      </g>
      <g id="Group_1016-2" data-name="Group 1016" transform="translate(82 -29)">
        <text id="有效-2" data-name="有效" transform="translate(152 391)" fill="#3e6b69" font-size="16" font-family="PingFangTC-Medium, PingFang TC" font-weight="500" letter-spacing="0.025em"><tspan x="0" y="0">有效</tspan></text>
      </g>
      <g id="Group_1125-2" data-name="Group 1125" transform="translate(-8)">
        <rect id="Rectangle_1665-2" data-name="Rectangle 1665" width="90" height="25" rx="12" transform="translate(308 344)" fill="#3e6b69"/>
        <text id="線上變更-2" data-name="線上變更" transform="translate(321 362)" fill="#fff" font-size="16" font-family="PingFangTC-Medium, PingFang TC" font-weight="500" letter-spacing="0.025em"><tspan x="0" y="0">線上變更</tspan></text>
      </g>
      <line id="Line_75" data-name="Line 75" x2="376" transform="translate(19.5 398)" fill="none" stroke="rgba(90,90,90,0.5)" stroke-width="1"/>
    </g>
    <g id="Group_1128" data-name="Group 1128" transform="translate(0 160)">
      <g id="Group_1087-3" data-name="Group 1087" transform="translate(-11761 -304)">
        <text id="王_明-5" data-name="王＊明" transform="translate(11814 657)" fill="#3e6b69" font-size="14" font-family="PingFangTC-Medium, PingFang TC" font-weight="500" letter-spacing="0.05em"><tspan x="-21.7" y="0">王＊明</tspan></text>
      </g>
      <g id="Group_1091-3" data-name="Group 1091" transform="translate(-11690 -295)">
        <text id="TES0000021-3" data-name="TES0000021" transform="translate(11839 657)" fill="#5a5a5a" font-size="14" font-family="SFProText-Medium, SF Pro Text" font-weight="500" letter-spacing="0.05em" text-decoration="underline"><tspan x="-46.879" y="0">TES0000021</tspan></text>
      </g>
      <g id="Group_1089-3" data-name="Group 1089" transform="translate(-11761 -284)">
        <text id="王_明-6" data-name="王＊明" transform="translate(11814 657)" fill="#5a5a5a" font-size="14" font-family="PingFangTC-Medium, PingFang TC" font-weight="500" letter-spacing="0.05em"><tspan x="-21.7" y="0">王＊明</tspan></text>
      </g>
      <g id="Group_1016-3" data-name="Group 1016" transform="translate(82 -29)">
        <text id="有效-3" data-name="有效" transform="translate(152 391)" fill="#3e6b69" font-size="16" font-family="PingFangTC-Medium, PingFang TC" font-weight="500" letter-spacing="0.025em"><tspan x="0" y="0">有效</tspan></text>
      </g>
      <g id="Group_1125-3" data-name="Group 1125" transform="translate(-8)">
        <rect id="Rectangle_1665-3" data-name="Rectangle 1665" width="90" height="25" rx="12" transform="translate(308 344)" fill="#3e6b69"/>
        <text id="線上變更-3" data-name="線上變更" transform="translate(321 362)" fill="#fff" font-size="16" font-family="PingFangTC-Medium, PingFang TC" font-weight="500" letter-spacing="0.025em"><tspan x="0" y="0">線上變更</tspan></text>
      </g>
      <line id="Line_75-2" data-name="Line 75" x2="376" transform="translate(19.5 398)" fill="none" stroke="rgba(90,90,90,0.5)" stroke-width="1"/>
    </g>
    <g id="Group_1129" data-name="Group 1129" transform="translate(0 240)">
      <g id="Group_1087-4" data-name="Group 1087" transform="translate(-11761 -304)">
        <text id="王_明-7" data-name="王＊明" transform="translate(11814 657)" fill="#3e6b69" font-size="14" font-family="PingFangTC-Medium, PingFang TC" font-weight="500" letter-spacing="0.05em"><tspan x="-21.7" y="0">王＊明</tspan></text>
      </g>
      <g id="Group_1091-4" data-name="Group 1091" transform="translate(-11690 -295)">
        <text id="TES0000021-4" data-name="TES0000021" transform="translate(11839 657)" fill="#5a5a5a" font-size="14" font-family="SFProText-Medium, SF Pro Text" font-weight="500" letter-spacing="0.05em" text-decoration="underline"><tspan x="-46.879" y="0">TES0000021</tspan></text>
      </g>
      <g id="Group_1089-4" data-name="Group 1089" transform="translate(-11761 -284)">
        <text id="王_明-8" data-name="王＊明" transform="translate(11814 657)" fill="#5a5a5a" font-size="14" font-family="PingFangTC-Medium, PingFang TC" font-weight="500" letter-spacing="0.05em"><tspan x="-21.7" y="0">王＊明</tspan></text>
      </g>
      <g id="Group_1016-4" data-name="Group 1016" transform="translate(82 -29)">
        <text id="有效-4" data-name="有效" transform="translate(152 391)" fill="#3e6b69" font-size="16" font-family="PingFangTC-Medium, PingFang TC" font-weight="500" letter-spacing="0.025em"><tspan x="0" y="0">有效</tspan></text>
      </g>
      <g id="Group_1125-4" data-name="Group 1125" transform="translate(-8)">
        <rect id="Rectangle_1665-4" data-name="Rectangle 1665" width="90" height="25" rx="12" transform="translate(308 344)" fill="#3e6b69"/>
        <text id="線上變更-4" data-name="線上變更" transform="translate(321 362)" fill="#fff" font-size="16" font-family="PingFangTC-Medium, PingFang TC" font-weight="500" letter-spacing="0.025em"><tspan x="0" y="0">線上變更</tspan></text>
      </g>
      <line id="Line_75-3" data-name="Line 75" x2="376" transform="translate(19.5 398)" fill="none" stroke="rgba(90,90,90,0.5)" stroke-width="1"/>
    </g>
    <g id="Group_1130" data-name="Group 1130" transform="translate(0 320)">
      <g id="Group_1087-5" data-name="Group 1087" transform="translate(-11761 -304)">
        <text id="王_明-9" data-name="王＊明" transform="translate(11814 657)" fill="#3e6b69" font-size="14" font-family="PingFangTC-Medium, PingFang TC" font-weight="500" letter-spacing="0.05em"><tspan x="-21.7" y="0">王＊明</tspan></text>
      </g>
      <g id="Group_1091-5" data-name="Group 1091" transform="translate(-11690 -295)">
        <text id="TES0000021-5" data-name="TES0000021" transform="translate(11839 657)" fill="#5a5a5a" font-size="14" font-family="SFProText-Medium, SF Pro Text" font-weight="500" letter-spacing="0.05em" text-decoration="underline"><tspan x="-46.879" y="0">TES0000021</tspan></text>
      </g>
      <g id="Group_1089-5" data-name="Group 1089" transform="translate(-11761 -284)">
        <text id="王_明-10" data-name="王＊明" transform="translate(11814 657)" fill="#5a5a5a" font-size="14" font-family="PingFangTC-Medium, PingFang TC" font-weight="500" letter-spacing="0.05em"><tspan x="-21.7" y="0">王＊明</tspan></text>
      </g>
      <g id="Group_1016-5" data-name="Group 1016" transform="translate(82 -29)">
        <text id="有效-5" data-name="有效" transform="translate(152 391)" fill="#3e6b69" font-size="16" font-family="PingFangTC-Medium, PingFang TC" font-weight="500" letter-spacing="0.025em"><tspan x="0" y="0">有效</tspan></text>
      </g>
      <g id="Group_1125-5" data-name="Group 1125" transform="translate(-8)">
        <rect id="Rectangle_1665-5" data-name="Rectangle 1665" width="90" height="25" rx="12" transform="translate(308 344)" fill="#3e6b69"/>
        <text id="線上變更-5" data-name="線上變更" transform="translate(321 362)" fill="#fff" font-size="16" font-family="PingFangTC-Medium, PingFang TC" font-weight="500" letter-spacing="0.025em"><tspan x="0" y="0">線上變更</tspan></text>
      </g>
      <line id="Line_75-4" data-name="Line 75" x2="376" transform="translate(19.5 398)" fill="none" stroke="rgba(90,90,90,0.5)" stroke-width="1"/>
    </g>
    <g id="Group_1131" data-name="Group 1131" transform="translate(0 400)">
      <g id="Group_1087-6" data-name="Group 1087" transform="translate(-11761 -304)">
        <text id="王_明-11" data-name="王＊明" transform="translate(11814 657)" fill="#3e6b69" font-size="14" font-family="PingFangTC-Medium, PingFang TC" font-weight="500" letter-spacing="0.05em"><tspan x="-21.7" y="0">王＊明</tspan></text>
      </g>
      <g id="Group_1091-6" data-name="Group 1091" transform="translate(-11690 -295)">
        <text id="TES0000021-6" data-name="TES0000021" transform="translate(11839 657)" fill="#5a5a5a" font-size="14" font-family="SFProText-Medium, SF Pro Text" font-weight="500" letter-spacing="0.05em" text-decoration="underline"><tspan x="-46.879" y="0">TES0000021</tspan></text>
      </g>
      <g id="Group_1089-6" data-name="Group 1089" transform="translate(-11761 -284)">
        <text id="王_明-12" data-name="王＊明" transform="translate(11814 657)" fill="#5a5a5a" font-size="14" font-family="PingFangTC-Medium, PingFang TC" font-weight="500" letter-spacing="0.05em"><tspan x="-21.7" y="0">王＊明</tspan></text>
      </g>
      <g id="Group_1016-6" data-name="Group 1016" transform="translate(82 -29)">
        <text id="有效-6" data-name="有效" transform="translate(152 391)" fill="#3e6b69" font-size="16" font-family="PingFangTC-Medium, PingFang TC" font-weight="500" letter-spacing="0.025em"><tspan x="0" y="0">有效</tspan></text>
      </g>
      <g id="Group_1125-6" data-name="Group 1125" transform="translate(-8)">
        <rect id="Rectangle_1665-6" data-name="Rectangle 1665" width="90" height="25" rx="12" transform="translate(308 344)" fill="#3e6b69"/>
        <text id="線上變更-6" data-name="線上變更" transform="translate(321 362)" fill="#fff" font-size="16" font-family="PingFangTC-Medium, PingFang TC" font-weight="500" letter-spacing="0.025em"><tspan x="0" y="0">線上變更</tspan></text>
      </g>
      <line id="Line_75-5" data-name="Line 75" x2="376" transform="translate(19.5 398)" fill="none" stroke="rgba(90,90,90,0.5)" stroke-width="1"/>
    </g>
    <g id="Group_1578" data-name="Group 1578" transform="translate(0 0)">
      <path id="Subtraction_3" data-name="Subtraction 3" d="M-10513,1436h-414V142h414V1436Zm-323-956a7.008,7.008,0,0,0-7,7v25.122a7.01,7.01,0,0,0,7,7h113a7.008,7.008,0,0,0,7-7V487a7.007,7.007,0,0,0-7-7Z" transform="translate(10927 -142)" fill="rgba(0,0,0,0.5)"/>
      <g id="Group_1576" data-name="Group 1576" transform="translate(-5 211.699)">
        <path id="Path_1726" data-name="Path 1726" d="M243.546,172.758a8.787,8.787,0,1,0-13.37,7.495v-6.038a5,5,0,0,1,5.149-5,5.074,5.074,0,0,1,4.873,5.066v5.369A8.774,8.774,0,0,0,243.546,172.758Z" transform="translate(-27.555 -17.01)" fill="none"/>
        <path id="Path_1727" data-name="Path 1727" d="M241.922,228.825a1.668,1.668,0,0,0-1.666,1.666v.555a1.666,1.666,0,0,1-3.332,0V228.27a1.666,1.666,0,1,0-3.332,0v2.777a1.666,1.666,0,0,1-3.332,0v-5a1.666,1.666,0,0,0-3.3-.317v5.315a1.682,1.682,0,0,1-3.364,0c0-9.9.031-1.591.031-19.925a1.719,1.719,0,0,0-1.631-1.735,1.672,1.672,0,0,0-1.726,1.666v29.825a1.668,1.668,0,0,1-2.871,1.15l-4.828-5.056a1.714,1.714,0,0,0-2.369-.137,1.666,1.666,0,0,0-.089,2.388l11.265,12.014a5.015,5.015,0,0,0,3.646,1.58H238.59a5,5,0,0,0,5-5V230.491A1.668,1.668,0,0,0,241.922,228.825Z" transform="translate(-14.316 -53.849)" fill="none"/>
        <g id="Group_1515" data-name="Group 1515" transform="translate(0 8)">
          <circle id="Ellipse_19" data-name="Ellipse 19" cx="13" cy="13" r="13" transform="translate(187 135.301)" fill="#bf4e58" style="mix-blend-mode: multiply;isolation: isolate"/>
          <path id="Path_1729" data-name="Path 1729" d="M225.4,211.7a5,5,0,0,0-6.665-2.222,5,5,0,0,0-6.09-2.462v-10.2a5.074,5.074,0,0,0-4.873-5.066,5,5,0,0,0-5.149,5v25.668l-1.957-2.05a5.068,5.068,0,0,0-7.013-.308,5,5,0,0,0-.271,7.156l11.249,12a8.362,8.362,0,0,0,6.078,2.632h13.567a8.34,8.34,0,0,0,8.331-8.331V216.178A5,5,0,0,0,225.4,211.7Zm3.875,21.811a5,5,0,0,1-5,5H210.706a5.015,5.015,0,0,1-3.646-1.58L195.8,224.911a1.665,1.665,0,0,1,.089-2.388,1.714,1.714,0,0,1,2.369.137l4.828,5.056a1.668,1.668,0,0,0,2.871-1.15V196.74a1.672,1.672,0,0,1,1.726-1.666,1.719,1.719,0,0,1,1.631,1.735c0,18.334-.031,10.023-.031,19.925a1.682,1.682,0,0,0,3.363,0v-5.315a1.666,1.666,0,0,1,3.3.317v5a1.666,1.666,0,0,0,3.332,0v-2.777a1.666,1.666,0,1,1,3.332,0v2.777a1.666,1.666,0,0,0,3.332,0v-.555a1.666,1.666,0,1,1,3.332,0Z" transform="translate(-7 -43.536)" fill="#fff"/>
        </g>
      </g>
      <g id="Group_1577" data-name="Group 1577">
        <g transform="matrix(1, 0, 0, 1, 0, 0)" filter="url(#Union_9)">
          <path id="Union_9-2" data-name="Union 9" d="M-3177.3-980.534l-6.191-13.649H-3341a10,10,0,0,1-10-10v-357a10,10,0,0,1,10-10h327a10,10,0,0,1,10,10v357a10,10,0,0,1-10,10h-152.361l-6.184,13.652a2.574,2.574,0,0,1-2.376,1.533A2.582,2.582,0,0,1-3177.3-980.534Z" transform="translate(-2971 -556.18) rotate(180)" fill="#fff"/>
        </g>
      </g>
    </g>
    <path id="Path_1961" data-name="Path 1961" d="M-65.056-6.954V-5.4h2.869v.931h-3.287v1.748h8.265V-4.465h-3.249V-5.4h2.831V-6.954h-2.831v-.912h3.116v-7.163h-7.98v7.163h3.135v.912Zm-.133,4.959a13.474,13.474,0,0,1-.646,3.477l1.615.494A19.483,19.483,0,0,0-63.688-1.8Zm3.4.114-1.425.19c.057.817.1,1.976.114,3.458l1.6-.209A31,31,0,0,0-61.788-1.881Zm4.028-.361-1.387.4c.285.988.532,2.014.741,3.059L-57,.7C-57.19-.209-57.437-1.178-57.76-2.242Zm-2.033.266-1.406.285c.19.931.361,2,.494,3.211l1.577-.361C-59.318.019-59.546-1.026-59.793-1.976Zm.874-7.372h-1.748v-4.2h1.748Zm-3.135,0h-1.691v-3.059c.228.8.437,1.653.608,2.527l1.026-.266a22.8,22.8,0,0,0-.665-2.717l-.969.3v-.988h1.691Zm1.957-3.7a18.578,18.578,0,0,1-.475,2.85l1.026.361a17.733,17.733,0,0,0,.513-2.926ZM-54-15.5v8h-2.546V1.976h1.862V1.083h3.838v.893h1.862V-7.505H-52.06v-2.888h3.819V-12.2H-52.06V-15.5ZM-54.682-.7V-5.719h3.838V-.7ZM-32.072-5.8a124.389,124.389,0,0,1-12.654.551l.418,1.216c1.976,0,3.838-.038,5.548-.076v.646h-6.118v1.292h6.118v.589h-7.752V-.133h7.752V.076c0,.323-.209.494-.627.494-.665,0-1.368-.038-2.109-.095l.361,1.577h2.28c1.33,0,2.014-.532,2.014-1.577V-.133h7.353V-1.577h-7.353v-.589h5.89V-3.458h-5.89v-.7c2.09-.076,3.933-.209,5.529-.361Zm-13.623-7.581V-9.6h2.945v.475h-3.686v1.235h3.686v.874H-44V-7.6h-1.691v1.8h7.638V-7.6h-1.691v.589H-41v-.874h3.667V-9.12H-41V-9.6h2.926v-3.781H-41v-.418h3.439v-1.33H-41v-.513H-42.75v.513H-46.3v1.33h3.553v.418Zm6.042,2.85h-1.539v-.589h1.539Zm-2.907,0h-1.558v-.589h1.558Zm-1.558-1.368v-.513h1.558v.513Zm2.926-.513h1.539v.513h-1.539Zm4.712-2.736a4.033,4.033,0,0,1-.361,2.033A4.6,4.6,0,0,1-37.848-12.1l1.083.969h-.589v1.463h.342a7.05,7.05,0,0,0,1.729,1.9,17.884,17.884,0,0,1-2.451.589l.8,1.463a17.418,17.418,0,0,0,3.268-1.045A15.494,15.494,0,0,0-30.1-5.624l.608-1.52a22.779,22.779,0,0,1-2.489-.608,5.374,5.374,0,0,0,1.672-2.014v-1.368h-6.042a4.429,4.429,0,0,0,1.1-1.235,4.2,4.2,0,0,0,.361-1.33H-33v.855c0,.8.513,1.216,1.558,1.216h1.653v-1.311h-1.159c-.228,0-.323-.076-.323-.228v-1.976Zm1.14,5.472h3.249a5.485,5.485,0,0,1-1.558,1.216A6.77,6.77,0,0,1-35.34-9.671Zm15.675,5.32a15.4,15.4,0,0,1-3.667,3.61L-22.116.836A17.282,17.282,0,0,0-18.3-3.154Zm5.757-.057-1.216,1.349A28.97,28.97,0,0,1-11.381.8l1.33-1.463A32.723,32.723,0,0,0-13.908-4.408ZM-23.9-15.789A20.85,20.85,0,0,1-27.968-8.17l.665,2.128c.57-.608,1.121-1.235,1.615-1.881V2.014h2.014V-11a21.217,21.217,0,0,0,1.653-3.9Zm2.565.95v6.422h3.629v1.5h-5.054v1.938h5.054V1.995h1.976V-4.978h5.244V-6.916h-5.244v-1.5h3.667v-6.422Zm7.315,4.522H-19.38v-2.622h5.358Zm6.5-4.731v4.237H-.608v-4.237Zm4.978,2.812H-5.605v-1.387h3.059ZM.589-15.048v4.237H7.524v-4.237ZM5.605-12.16h-3.1v-1.5h3.1ZM-6.84-9.975v6.688h5.833v1.064H-8.284V-.551h7.277V1.957H1.007V-.551H8.284V-2.223H1.007V-3.287H6.84V-9.975ZM4.883-4.845H1.007v-1.1H4.883Zm-5.89,0H-4.883v-1.1h3.876Zm-3.876-2.47v-1.1h3.876v1.1Zm5.89-1.1H4.883v1.1H1.007Zm9.8-6.574V-9.5h5.852v-5.491Zm4.028,3.857h-2.2v-2.223h2.2Zm-4.6,2.413V-6.9h1.5c-.228,1.026-.513,2.185-.874,3.439h3.591q-.085,2.85-.513,3.192a2.988,2.988,0,0,1-1.672.323A6.623,6.623,0,0,1,11.438,0l.551,1.8h.247c1.653,0,2.736-.247,3.249-.722s.817-2.565.893-6.289H13.2c.152-.494.285-1.064.437-1.691h3.4V-8.721Zm11.02-6.954v3.439H17.5V-6.46a18.589,18.589,0,0,1-1.33,7.2l1.539,1.33A20.036,20.036,0,0,0,19.361-6.46v-4.047h1.957V-9.12l-1.824.247L19.76-7.22l1.558-.209v.741q0,1.539,1.824,1.539h3.667V-6.84H23.693c-.342,0-.513-.114-.513-.3v-.532l2.166-.3-.152-.931,1.387.4a13.179,13.179,0,0,0,.8-2.831v-.893H23.2v-.912h3.724v-1.615H23.2v-.912Zm1.919,5.168h2.2c-.1.285-.19.57-.3.874l-1.9.266ZM20.292-4.693C20.254-1.919,19.7-.057,18.62.912l1.558,1.216c1.273-1.235,1.938-3.515,1.976-6.821Zm5.529,6.384a2.2,2.2,0,0,0,1.615-.551,5.852,5.852,0,0,0,.4-2.831l-1.653-.627c0,.7-.019,1.254-.057,1.634s-.171.589-.4.608h-.57c-.152-.019-.228-.095-.228-.209V-4.693h-1.8V.076c0,1.064.646,1.615,1.957,1.615Zm5.6-14.535a19.707,19.707,0,0,1-2.375,6.783l1.007,1.634c.266-.38.513-.779.76-1.2V1.33H32.6V.361h2.983V-9.1H32.4a25.069,25.069,0,0,0,.931-3.743h2.622v-1.9h-6.27v1.9Zm7.334,2.223h2.261V-9.4H38.76Zm0,2.812h2.261v1.178H38.76Zm4.085,1.178V-7.809h2.869V-9.4H42.845v-1.216h2.812v-1.6H42.845v-1.2h3.173v-1.653H36.936V-5h7.676c0,1.349-.038,2.432-.114,3.23-.152-.874-.342-1.843-.608-2.869l-1.33.38c.266,1.064.475,2.147.646,3.268l1.273-.494c-.038.266-.057.475-.095.665-.152.684-.7,1.026-1.615,1.026-.475,0-.988-.038-1.539-.076l.437,1.729c.494.038.969.057,1.444.057a2.827,2.827,0,0,0,2.6-1.083c.437-.722.665-3.211.665-7.467Zm-1.824-6.783v1.2H38.76v-1.2ZM36.746-4.37A43.107,43.107,0,0,1,35.815.646l1.634.589c.285-1.482.532-3.23.76-5.225Zm3.306.19-1.406.152c.076,1.083.114,2.6.152,4.579L40.28.361C40.242-1.558,40.166-3.078,40.052-4.18Zm1.957-.152-1.368.171a29.111,29.111,0,0,1,.323,3.743l1.444-.19A24.992,24.992,0,0,0,42.009-4.332ZM32.6-1.387v-6h1.273v6ZM56.962-8.493a1.535,1.535,0,0,0-1.14.418,1.365,1.365,0,0,0-.456,1.083,1.446,1.446,0,0,0,.418,1.064,1.42,1.42,0,0,0,1.045.437,1.451,1.451,0,0,0,.475-.076,2.318,2.318,0,0,1-.494,1.349,3.154,3.154,0,0,1-1.311.912v1.254a4.562,4.562,0,0,0,2.375-1.539,4.284,4.284,0,0,0,.874-2.641,2.614,2.614,0,0,0-.494-1.634A1.609,1.609,0,0,0,56.962-8.493Zm-169.993,22.9v1.919h12.768V28.221c0,.532-.247.817-.7.817-.95,0-1.957-.038-2.983-.114l.456,1.919h3.211c1.33,0,2.014-.722,2.014-2.128V16.327h2.356V14.408Zm9.88,4.2H-111v8.968h1.9v-1.52h5.947Zm-5.947,5.662v-3.9h4.066v3.9Zm17.765-3.857v7.277h11.742V20.412h-4.9V18.417c2.185.7,4.332,1.52,6.441,2.432L-76.76,19.4a77.078,77.078,0,0,0-7.733-2.356v-.323h6.916V14.9h-6.916V13.363h-1.938V14.9h-6.916v1.824h5.225a19.2,19.2,0,0,1-6.175,2.6l1.083,1.748a16.553,16.553,0,0,0,6.783-4.2v3.534Zm9.8,5.529H-89.4V24.915h7.866Zm-7.866-2.7V22.16h7.866v1.083Zm-4.332,5.434v1.805h16.473V28.677ZM-73.8,16.688V18.36h5.035c-.19.266-.38.551-.57.817h-5.491v1.748h4.066a27.462,27.462,0,0,1-4.56,3.8l1.064,1.71c.912-.646,1.786-1.311,2.622-2.014v6.593h1.881v-.7h8.075v.7h1.881V21.723h-9.158c.209-.247.418-.513.646-.8h10.279V19.177h-9.1c.152-.266.3-.551.456-.817h7.543V16.688h-6.764c.114-.3.228-.608.342-.931A51.032,51.032,0,0,0-59.2,14.9l-.912-1.558a74.087,74.087,0,0,1-13.566,1.064l.532,1.615c2.014,0,3.914-.057,5.681-.133l-.361.8Zm4.047,8.911h8.075v.779h-8.075Zm8.075-1.482h-8.075v-.8h8.075Zm-8.075,3.743h8.075v.855h-8.075Zm19.893-3.914h-5.681v6.745h1.862v-.817h3.819Zm-3.819,4.18V25.694h1.957v2.432Zm-2.47-12.521v1.786h6.84V15.605h-2.3c-.209-.684-.494-1.444-.836-2.261l-1.9.513a18.336,18.336,0,0,1,.817,1.748Zm.779,2.85v1.71h5.32v-1.71Zm0,2.641v1.71h5.32V21.1Zm12.35,6.726a20.633,20.633,0,0,1,2.66,3.116l1.387-1.387a25.722,25.722,0,0,0-2.85-2.964,21.473,21.473,0,0,0,2.736-4.18l-1.672-.874a14.8,14.8,0,0,1-8.588,7.809l1.121,1.691A16.486,16.486,0,0,0-43.016,27.822Zm.722-9.766a19.817,19.817,0,0,1-1.254,2.261l-2.432.171a20.957,20.957,0,0,0,2.242-3.4h4.579V15.282h-3.724c-.209-.7-.418-1.349-.646-1.919l-2.033.342a13.533,13.533,0,0,1,.741,1.577h-4.047v1.805h3.078a10.234,10.234,0,0,1-2.394,3.268,1.614,1.614,0,0,1-.361.171l.4,1.6q1.71-.057,3.306-.171a11.565,11.565,0,0,1-4.408,2.983l1.064,1.6a14.1,14.1,0,0,0,7.524-7.6Zm13.129,6.593a15.4,15.4,0,0,1-3.667,3.61l1.216,1.577a17.282,17.282,0,0,0,3.819-3.99Zm5.757-.057-1.216,1.349A28.97,28.97,0,0,1-20.881,29.8l1.33-1.463A32.723,32.723,0,0,0-23.408,24.592ZM-33.4,13.211a20.85,20.85,0,0,1-4.066,7.619l.665,2.128c.57-.608,1.121-1.235,1.615-1.881v9.937h2.014V18a21.217,21.217,0,0,0,1.653-3.9Zm2.565.95v6.422h3.629v1.5h-5.054v1.938h5.054v6.973h1.976V24.022h5.244V22.084h-5.244v-1.5h3.667V14.161Zm7.315,4.522H-28.88V16.061h5.358Zm6.5-4.731v4.237h6.916V13.952Zm4.978,2.812H-15.1V15.377h3.059Zm3.135-2.812v4.237h6.935V13.952Zm5.016,2.888h-3.1v-1.5h3.1ZM-16.34,19.025v6.688h5.833v1.064h-7.277v1.672h7.277v2.508h2.014V28.449h7.277V26.777H-8.493V25.713H-2.66V19.025Zm11.723,5.13H-8.493v-1.1h3.876Zm-5.89,0h-3.876v-1.1h3.876Zm-3.876-2.47v-1.1h3.876v1.1Zm5.89-1.1h3.876v1.1H-8.493Zm16.416-4.1H5.035a17.507,17.507,0,0,0,.836-2.869l-1.995-.266a17.129,17.129,0,0,1-.741,3.135H1.311v13.87h1.9v-1.5H6.023v.95h1.9ZM3.211,27.024V23.433H6.023v3.591Zm0-5.358V18.341H6.023v3.325Zm8.17-.57L9.766,22.1A34.594,34.594,0,0,1,12.6,26.264l1.6-1.1A32.636,32.636,0,0,0,11.381,21.1Zm6.327-4.617H11.932a25,25,0,0,0,.722-2.907L10.7,13.325a16.184,16.184,0,0,1-2.546,6.593l1.2,1.577a15.3,15.3,0,0,0,1.824-3.078h4.6c-.038,5.377-.095,8.512-.209,9.424a1.137,1.137,0,0,1-1.2,1.121c-.627,0-1.368-.038-2.2-.095l.475,1.805q1.482.114,2.052.114,2.451,0,2.736-1.995Q17.708,26.454,17.708,16.479Zm4.408,13.414h1.672v.779h1.843V23.946H20.273v6.992h1.843Zm1.672-1.786H22.116V25.694h1.672ZM19.874,15.586V17.41h6.137V15.586H24.073a18.753,18.753,0,0,0-.779-2.242l-1.919.513c.285.57.551,1.14.8,1.729Zm.57,2.85v1.729H25.46V18.436Zm0,2.66v1.748H25.46V21.1Zm10.279-2.679V20.64H27.208V22.5h3.515v2.3h-4.56v1.881h4.56v4.351H32.7V26.682h4.579V24.8H32.7V22.5h3.5V20.64H32.7V18.417h4.066V16.555h-2.28A17.907,17.907,0,0,0,35.72,13.99l-1.881-.665a27.3,27.3,0,0,1-1.311,3.23h-2.7l1.026-.513c-.513-.95-1.045-1.843-1.577-2.66l-1.634.8a18.773,18.773,0,0,1,1.463,2.375H26.619v1.862Zm19.133-1.843v4.693H47.709V16.574Zm0,6.479v4.959H47.709V23.053Zm1.786,4.959V23.053h2.242v4.959Zm0-6.745V16.574h2.242v4.693Zm2.242,8.55v1.045h1.824V14.75H45.923V30.843h1.786V29.817ZM39.33,25.96a21.785,21.785,0,0,1-.57,4.218l1.748.551a37.746,37.746,0,0,0,.4-4.56Zm3.591-.133-1.5.19c.114.95.171,2.318.19,4.085l1.672-.209A34.481,34.481,0,0,0,42.921,25.827Zm1.786-.627-1.368.551c.266.95.513,2.033.741,3.268l1.5-.627A27.711,27.711,0,0,0,44.707,25.2Zm-.361-4.484-1.406.57c.19.456.361.969.532,1.52-.7.209-1.387.38-2.071.532a45.324,45.324,0,0,0,3.876-6.4L43.6,16.27c-.361.741-.7,1.425-1.026,2.071-.57.114-1.14.228-1.71.323a28.657,28.657,0,0,0,2.3-4.6l-1.805-.722A33.247,33.247,0,0,1,39.5,18.113a1.713,1.713,0,0,1-.779.665l.456,1.653q1.311-.2,2.508-.4A18.3,18.3,0,0,1,39.729,23a2.137,2.137,0,0,1-.817.513l.475,1.634a27.192,27.192,0,0,0,4.5-.931c.076.266.133.532.209.836l1.577-.665A28.7,28.7,0,0,0,44.346,20.716Zm22.363-4.769h5.51a8.193,8.193,0,0,1-.912,1.159l1.33,1.083a11.227,11.227,0,0,0,1.634-2.508V14.313H67.678c.114-.266.209-.532.323-.836l-1.824-.228a6.675,6.675,0,0,1-2.7,3.325L64.562,18A10.529,10.529,0,0,0,66.709,15.947Zm-8.227-1.615V16h4.75V14.332Zm-.38,3.42v1.691h5.529V17.752Zm10.431-1.71c-.456,1.71-1.938,2.774-4.446,3.211l.722,1.14H60.173v7.961h3.211a26.727,26.727,0,0,1-5.32,1.235l.893,1.539A21.881,21.881,0,0,0,65,29.361l-.76-1.007h4.275l-.589,1.159a39.778,39.778,0,0,1,6.346,1.615l.646-1.577a43.855,43.855,0,0,0-5.282-1.2h3.211V20.6a12.212,12.212,0,0,0,1.368.3l.8-1.653a8.859,8.859,0,0,1-5.035-2.147c.076-.228.152-.475.228-.722ZM66.12,20.393a6.26,6.26,0,0,0,3.1-1.976,8.938,8.938,0,0,0,3.04,1.976Zm4.788,6.4h-8.8V25.96h8.8Zm-8.8-2.09v-.76h8.8v.76Zm0-2.033v-.8h8.8v.8Zm16.511-7.714-1.634.532A33.329,33.329,0,0,1,78,19.329l1.52-.418C79.249,17.429,78.945,16.1,78.622,14.959Zm4.2-.19a19.349,19.349,0,0,1-.57,3.952l1.463.475a17.621,17.621,0,0,0,.76-4.2ZM77.235,19.88V21.8h2.679v9.12h1.938V21.8h2.47V19.88h-2.47v-6.5H79.914v6.5Zm13.357-6.441V24.307l-5.738.874.285,1.9,5.453-.817v4.693h1.919V25.979l1.862-.285-.323-1.9-1.539.228V13.439Zm-3.686,1.292-1.273,1.235a19.5,19.5,0,0,1,3.23,2.812l1.311-1.292A23.859,23.859,0,0,0,86.906,14.731ZM86.431,19.2l-1.292,1.216a18,18,0,0,1,3.154,3l1.33-1.292A25.725,25.725,0,0,0,86.431,19.2Zm-2.793,3.268-1.273.418c.342,1.406.627,2.869.855,4.408l1.482-.38A38.431,38.431,0,0,0,83.638,22.464Zm-5.586.076a27.555,27.555,0,0,1-1.368,5.092l1.444.513a36.427,36.427,0,0,0,1.349-5.225ZM104.5,19.6a2.61,2.61,0,0,0-1.881.741,2.32,2.32,0,0,0-.779,1.824,2.374,2.374,0,0,0,.779,1.824,2.61,2.61,0,0,0,1.881.741,2.673,2.673,0,0,0,1.881-.741,2.525,2.525,0,0,0,0-3.648A2.673,2.673,0,0,0,104.5,19.6Zm0,1.33a1.249,1.249,0,0,1,.893.361,1.164,1.164,0,0,1,.38.874,1.2,1.2,0,0,1-.38.874,1.334,1.334,0,0,1-.893.361,1.3,1.3,0,0,1-.893-.361,1.127,1.127,0,0,1-.38-.874,1.1,1.1,0,0,1,.38-.874A1.218,1.218,0,0,1,104.5,20.925ZM-91.066,52.74a12.041,12.041,0,0,0,2.755,8.136h2.486c-1.364-1.614-2.449-5.056-2.449-8.146s1.085-6.522,2.449-8.118h-2.486A11.981,11.981,0,0,0-91.066,52.74Zm9.271-9.693V50h4.636a16.445,16.445,0,0,1-.38,1.786h-6.042v1.862h5.339a8.143,8.143,0,0,1-.8,1.292,10.636,10.636,0,0,1-5.472,3.287l.779,1.824q4.5-1.425,6.327-3.876a11.8,11.8,0,0,0,1.349-2.527h5.719a17.351,17.351,0,0,1-.228,2.907,1.492,1.492,0,0,1-1.6,1.368,23.623,23.623,0,0,1-2.7-.171l.513,1.881c.608.057,1.387.1,2.3.1a3.062,3.062,0,0,0,2.907-1.406c.513-.931.779-3.116.779-6.536h-7.106c.133-.57.247-1.159.342-1.786h5.548V43.047Zm10.2,5.187h-8.189v-3.4h8.189Zm9.367,5.263v1.71h2.147a7.178,7.178,0,0,1-.38,1.311,3.829,3.829,0,0,1-1.824,1.71l.969,1.558a4.763,4.763,0,0,0,2.337-2.128,7.63,7.63,0,0,0,.7-2.451H-55.9v4.237h1.8V55.207h2.2V53.5h-2.2V51.844h1.615V50.172h-9.253v1.672h1.805V53.5Zm6.327,0h-2.261V51.844H-55.9Zm-7.22-6.8h3.591v.931h-3.591Zm3.591-1.33h-3.591V44.358h3.591Zm4.921,1.33h3.7v.912h-3.7Zm3.7-1.33h-3.7V44.4h3.7Zm-6.688-2.527h-7.505V59.824h1.976V49.165h5.529Zm6.688,6.289v7.9c0,.646-.247.988-.741.988-.532,0-1.121-.038-1.767-.1l.475,1.748c.665.038,1.33.076,1.995.076,1.33,0,2.014-.722,2.014-2.128V42.838h-7.619v6.289Zm9.9-5.434v1.748h4.636v.874h-3.952v7.03h3.952v.912H-41.42v1.748h5.054v1.634h1.9V56.005h4.959V54.257h-4.959v-.912h3.952v-7.03h-3.952v-.874h4.617V43.693h-4.617V42.439h-1.9v1.254Zm8.664,8.018H-34.5V50.59h2.166Zm-3.99,0h-2.166V50.59h2.166Zm-2.166-2.641V47.949h2.166V49.07Zm3.99-1.121h2.166V49.07H-34.5Zm-10.241-5.491-1.311,1.254a18.847,18.847,0,0,1,2.907,2.736l1.273-1.273A23.429,23.429,0,0,0-44.745,42.458Zm-1.767,4.522v1.786h2.489a24.646,24.646,0,0,1-2.185,2.774v1.482h2.679a15.7,15.7,0,0,1-.817,2.717c-.8.3-1.615,1.292-2.47,2.964l1.425,1.33c.8-1.672,1.387-2.508,1.729-2.508a.563.563,0,0,1,.437.209,6.235,6.235,0,0,0,2.147,1.482,8.947,8.947,0,0,0,2.926.456c1.273.038,2.565.076,3.857.076h4.655l.456-1.862c-2.2.076-3.99.133-5.358.133-1.33,0-2.508-.019-3.534-.019a7.664,7.664,0,0,1-2.356-.38,6.244,6.244,0,0,1-1.71-1.216c-.133-.114-.285-.247-.437-.361a20.092,20.092,0,0,0,.912-3.382V51.369h-2.2a26.177,26.177,0,0,0,2.014-2.85V46.98Zm19.361,8.075a17.916,17.916,0,0,1-.627,4.066l1.748.551a21.873,21.873,0,0,0,.646-4.389Zm3.781-.323-1.615.361c.209,1.14.4,2.47.551,3.952l1.843-.437C-22.819,57.2-23.085,55.91-23.37,54.732Zm1.9-4.864-1.52.494c.152.475.3.95.437,1.444-.76.19-1.539.361-2.318.513a45.815,45.815,0,0,0,3.952-5.966v.19h4.389V48.8h-3.876v1.9h9.728V48.8h-3.9V46.543h4.313v-1.9h-4.313V42.42H-16.53v2.223h-4.389V46.03l-1.672-.627c-.418.8-.836,1.539-1.216,2.223-.551.1-1.121.171-1.691.247a29.31,29.31,0,0,0,2.622-4.883l-1.9-.741a30.427,30.427,0,0,1-2.166,5.035,2.067,2.067,0,0,1-.817.722l.475,1.805c.836-.133,1.653-.266,2.413-.38a14.074,14.074,0,0,1-1.938,2.622,3.222,3.222,0,0,1-.893.551l.513,1.786a29.849,29.849,0,0,0,5.016-1.083l.152.741,1.634-.418A32.452,32.452,0,0,0-21.47,49.868Zm.266,4.37-1.482.494a30.074,30.074,0,0,1,1.045,3.382l1.615-.741A23.358,23.358,0,0,0-21.2,54.238Zm9.994-2.147H-19.8v7.885h1.938v-.7h4.731v.7h1.919Zm-6.65,5.32V53.934h4.731v3.477Zm9.842-14.25v1.9h4.845a12.575,12.575,0,0,1-4.389,4.18l.532,1.71a118.155,118.155,0,0,0,11.8-1.159c.437.57.836,1.14,1.216,1.71l1.634-1.159A40.012,40.012,0,0,0,3.61,45.536L2,46.562c.494.532.95,1.045,1.406,1.577-2.47.38-4.978.665-7.543.855A17.881,17.881,0,0,0-.855,45.061h8.8v-1.9ZM-7.239,53v1.881h6.232v2.47H-8.436v1.938H8.436V57.354H1.007v-2.47h6.1V53h-6.1V51.16H-1.007V53Zm19.3-2.014v6.137h5.909v1.1c0,1.064.608,1.6,1.862,1.6h5.453a3.115,3.115,0,0,0,1.767-.4c.418-.266.7-1.14.874-2.622l-1.748-.532c-.076.95-.209,1.5-.418,1.672a1.109,1.109,0,0,1-.817.266h-4.6c-.3,0-.437-.133-.437-.38v-.7h5.852V50.989ZM23.9,55.644h-3.99v-.912H23.9Zm-5.928,0H13.908v-.912h4.066Zm-4.066-2.28v-.931h4.066v.931Zm6-.931H23.9v.931h-3.99Zm-8.4-9.443v1.6H18.05v.722H10.792v3.971h1.824V46.771H18.05v3.7h1.9v-3.7h5.434v2.508h1.824V45.308H19.95v-.722h6.517v-1.6Zm9.671,6.023-.532,1.026a37.1,37.1,0,0,1,3.724.627l.532-1.216C23.712,49.26,22.477,49.108,21.185,49.013Zm-7.334-1.881-.608,1.159a36.013,36.013,0,0,1,3.629.38l.475-1.14A33.287,33.287,0,0,0,13.851,47.132Zm3.059,1.862a29.027,29.027,0,0,1-3.819.323l.38,1.254a24.581,24.581,0,0,0,3.819-.494Zm4.066-.285a33.424,33.424,0,0,0,3.667-.418l-.475-1.254a17.531,17.531,0,0,1-3.42.513Zm14.459-5.738h-5.32v9.462a18.61,18.61,0,0,1-.969,6.365l1.387,1.254a17.213,17.213,0,0,0,1.311-5.966c.627-.133,1.235-.285,1.805-.456v3.838a.649.649,0,0,1-.722.741c-.323,0-.665-.038-1.045-.076l.475,1.767H33.5c1.292,0,1.938-.608,1.938-1.786ZM31.9,52.262V49.146a14.148,14.148,0,0,1,1.748.513v2.2C33.1,52.015,32.509,52.148,31.9,52.262Zm0-4.788V44.757h1.748v3.192A13.145,13.145,0,0,0,31.9,47.474Zm14.288,2.6H40.622a7.392,7.392,0,0,0,.589-1.159c.038.1.114.209.19.361l1.748-.741a23.732,23.732,0,0,0-1.862-2.66,19.643,19.643,0,0,0,1.805-2.869l-1.767-.627a21.659,21.659,0,0,1-2.014,3.4c.646.95,1.235,1.9,1.767,2.869l-1.71-.228a.083.083,0,0,0-.019.057,21.513,21.513,0,0,0-1.5-2.47,18.226,18.226,0,0,0,2.033-2.964l-1.767-.627a24.736,24.736,0,0,1-2.223,3.5,33.6,33.6,0,0,1,1.786,3.477l1.615-.665a11.423,11.423,0,0,1-.57,1.349H36.271v9.9h1.9v-.684h6.118v.684h1.9Zm-8.018,7.467V51.787h6.118v5.757Zm1.748-5.206-1.178,1.14c.513.38,1.007.779,1.463,1.159a15.928,15.928,0,0,1-1.786,1.1l.931,1.387a15.95,15.95,0,0,0,2.09-1.387,18.915,18.915,0,0,1,1.368,1.444l1.216-1.216c-.418-.456-.874-.893-1.349-1.33a18.07,18.07,0,0,0,1.216-1.444l-1.121-1.14a11.918,11.918,0,0,1-1.292,1.52C40.983,53.155,40.47,52.756,39.919,52.338Zm4.807-9.861a21.232,21.232,0,0,1-2.109,3.306,28.235,28.235,0,0,1,2.2,3.477l1.767-.741a23.523,23.523,0,0,0-1.995-2.641A16.966,16.966,0,0,0,46.474,43.1ZM50.6,45.916V56.822h3.458a22.585,22.585,0,0,1-5.928,1.634l.95,1.634a21.068,21.068,0,0,0,6.289-2.071l-.931-1.2h4.883l-.741,1.1a32.015,32.015,0,0,1,6.08,2.109L65.7,58.418a40.533,40.533,0,0,0-5.168-1.6h3.135V45.916H57.551c.1-.38.171-.779.247-1.2h7.467V42.933H48.792v1.786h7.03c-.076.4-.152.8-.266,1.2ZM61.731,55h-9.2V53.611h9.2Zm-9.2-3.059v-1.33h9.2v1.33Zm0-3V47.721h9.2v1.216ZM67.469,42.99v1.9h7.619a11.835,11.835,0,0,1-.532,1.824H68.362V60.033h1.919v-.741h11.5v.741h1.919V46.714H76.551A14.467,14.467,0,0,0,77.1,44.89H84.55v-1.9Zm2.812,14.478V48.519h2v8.949Zm3.838,0v-1.9h3.762v1.9Zm5.6,0V48.519h2.052v8.949Zm-5.6-3.591V52.053h3.762v1.824Zm0-3.534V48.519h3.762v1.824Zm16.947,2.4a12.057,12.057,0,0,0-2.746-8.127h-2.5c1.364,1.614,2.449,5.056,2.449,8.136,0,3.1-1.085,6.531-2.449,8.127h2.5A12.046,12.046,0,0,0,91.066,52.74Z" transform="translate(203 490)" fill="rgba(0,0,0,0.7)"/>
  </g>
</svg>
